Renner-200-ThinItalic.ufo
<glyph name="quotedbl" format="1">
  <advance width="425"/>
  <unicode hex="0022"/>
  <outline>
    <contour>
      <point x="259" y="700" type="line"/>
      <point x="302" y="700" type="line"/>
      <point x="184" y="413" type="line"/>
      <point x="159" y="413" type="line"/>
    </contour>
    <contour>
      <point x="439" y="700" type="line"/>
      <point x="482" y="700" type="line"/>
      <point x="364" y="413" type="line"/>
      <point x="339" y="413" type="line"/>
    </contour>
  </outline>
</glyph>
<glyph name="parenleft" format="1">
  <advance width="265"/>
  <unicode hex="0028"/>
  <outline>
    <contour>
      <point x="343" y="780" type="curve"/>
      <point x="373" y="780" type="line"/>
      <point x="272" y="624"/>
      <point x="210" y="460"/>
      <point x="180" y="290" type="curve" smooth="yes"/>
      <point x="150" y="120"/>
      <point x="155" y="-44"/>
      <point x="200" y="-200" type="curve"/>
      <point x="170" y="-200" type="line"/>
      <point x="116" y="-50"/>
      <point x="111" y="120"/>
      <point x="141" y="290" type="curve" smooth="yes"/>
      <point x="171" y="460"/>
      <point x="237" y="630"/>
    </contour>
  </outline>
</glyph>
<glyph name="parenright" format="1">
  <advance width="265"/>
  <unicode hex="0029"/>
  <outline>
    <contour>
      <point x="25" y="-200" type="curve"/>
      <point x="-5" y="-200" type="line"/>
      <point x="96" y="-44"/>
      <point x="157" y="120"/>
      <point x="187" y="290" type="curve" smooth="yes"/>
      <point x="217" y="460"/>
      <point x="213" y="624"/>
      <point x="168" y="780" type="curve"/>
      <point x="198" y="780" type="line"/>
      <point x="252" y="630"/>
      <point x="256" y="460"/>
      <point x="226" y="290" type="curve" smooth="yes"/>
      <point x="196" y="120"/>
      <point x="131" y="-50"/>
    </contour>
  </outline>
</glyph>
<glyph name="asterisk" format="1">
  <advance width="592"/>
  <unicode hex="002A"/>
  <outline>
    <contour>
      <point x="569" y="590" type="line"/>
      <point x="572" y="558" type="line"/>
      <point x="388" y="507" type="line"/>
      <point x="385" y="529" type="line"/>
    </contour>
    <contour>
      <point x="484" y="380" type="line"/>
      <point x="454" y="361" type="line"/>
      <point x="377" y="511" type="line"/>
      <point x="398" y="525" type="line"/>
    </contour>
    <contour>
      <point x="266" y="361" type="line"/>
      <point x="242" y="380" type="line"/>
      <point x="380" y="525" type="line"/>
      <point x="395" y="511" type="line"/>
    </contour>
    <contour>
      <point x="216" y="558" type="line"/>
      <point x="231" y="590" type="line"/>
      <point x="393" y="529" type="line"/>
      <point x="382" y="507" type="line"/>
    </contour>
    <contour>
      <point x="403" y="700" type="line"/>
      <point x="435" y="700" type="line"/>
      <point x="398" y="518" type="line"/>
      <point x="376" y="518" type="line"/>
    </contour>
  </outline>
</glyph>
<glyph name="plus" format="1">
  <advance width="573"/>
  <unicode hex="002B"/>
  <outline>
    <contour>
      <point x="107" y="237" type="line"/>
      <point x="113" y="273" type="line"/>
      <point x="550" y="273" type="line"/>
      <point x="544" y="237" type="line"/>
    </contour>
    <contour>
      <point x="351" y="487" type="line"/>
      <point x="388" y="487" type="line"/>
      <point x="306" y="23" type="line"/>
      <point x="269" y="23" type="line"/>
    </contour>
  </outline>
</glyph>
<glyph name="hyphen" format="1">
  <advance width="210"/>
  <unicode hex="002D"/>
  <outline>
    <contour>
      <point x="48" y="242" type="line"/>
      <point x="53" y="275" type="line"/>
      <point x="253" y="275" type="line"/>
      <point x="248" y="242" type="line"/>
    </contour>
  </outline>
</glyph>
<glyph name="zero" format="1">
  <advance width="568"/>
  <unicode hex="0030"/>
  <outline>
    <contour>
      <point x="149" y="350" type="curve" smooth="yes"/>
      <point x="117" y="171"/>
      <point x="164" y="25"/>
      <point x="288" y="25" type="curve" smooth="yes"/>
      <point x="412" y="25"/>
      <point x="511" y="171"/>
      <point x="543" y="350" type="curve" smooth="yes"/>
      <point x="575" y="529"/>
      <point x="527" y="675"/>
      <point x="403" y="675" type="curve" smooth="yes"/>
      <point x="279" y="675"/>
      <point x="181" y="529"/>
    </contour>
    <contour>
      <point x="112" y="350" type="curve" smooth="yes"/>
      <point x="148" y="553"/>
      <point x="265" y="710"/>
      <point x="409" y="710" type="curve" smooth="yes"/>
      <point x="553" y="710"/>
      <point x="616" y="553"/>
      <point x="580" y="350" type="curve" smooth="yes"/>
      <point x="544" y="147"/>
      <point x="426" y="-10"/>
      <point x="282" y="-10" type="curve" smooth="yes"/>
      <point x="138" y="-10"/>
      <point x="76" y="147"/>
    </contour>
  </outline>
</glyph>
<glyph name="one" format="1">
  <advance width="424"/>
  <unicode hex="0031"/>
  <outline>
    <contour>
      <point x="199" y="621" type="line"/>
      <point x="206" y="660" type="line"/>
      <point x="416" y="707" type="line"/>
      <point x="291" y="0" type="line"/>
      <point x="254" y="0" type="line"/>
      <point x="371" y="661" type="line"/>
    </contour>
  </outline>
</glyph>
<glyph name="three" format="1">
  <advance width="549"/>
  <unicode hex="0033"/>
  <outline>
    <contour>
      <point x="313" y="356" type="curve"/>
      <point x="317" y="381" type="line"/>
      <point x="407" y="381"/>
      <point x="511" y="439"/>
      <point x="527" y="529" type="curve" smooth="yes"/>
      <point x="541" y="606"/>
      <point x="500" y="676"/>
      <point x="403" y="676" type="curve" smooth="yes"/>
      <point x="310" y="676"/>
      <point x="237" y="613"/>
      <point x="222" y="526" type="curve"/>
      <point x="186" y="526" type="line"/>
      <point x="205" y="635"/>
      <point x="294" y="710"/>
      <point x="409" y="710" type="curve" smooth="yes"/>
      <point x="529" y="710"/>
      <point x="580" y="623"/>
      <point x="564" y="530" type="curve" smooth="yes"/>
      <point x="545" y="425"/>
      <point x="429" y="356"/>
    </contour>
    <contour>
      <point x="278" y="-10" type="curve" smooth="yes"/>
      <point x="143" y="-10"/>
      <point x="77" y="76"/>
      <point x="96" y="185" type="curve"/>
      <point x="134" y="185" type="line"/>
      <point x="118" y="93"/>
      <point x="172" y="25"/>
      <point x="284" y="25" type="curve" smooth="yes"/>
      <point x="390" y="25"/>
      <point x="470" y="90"/>
      <point x="486" y="182" type="curve" smooth="yes"/>
      <point x="506" y="293"/>
      <point x="401" y="347"/>
      <point x="311" y="347" type="curve"/>
      <point x="316" y="372" type="line"/>
      <point x="432" y="372"/>
      <point x="546" y="312"/>
      <point x="523" y="179" type="curve" smooth="yes"/>
      <point x="503" y="66"/>
      <point x="403" y="-10"/>
    </contour>
  </outline>
</glyph>
<glyph name="five" format="1">
  <advance width="559"/>
  <unicode hex="0035"/>
  <outline>
    <contour>
      <point x="543" y="230" type="curve" smooth="yes"/>
      <point x="515" y="71"/>
      <point x="396" y="-10"/>
      <point x="267" y="-10" type="curve" smooth="yes"/>
      <point x="151" y="-10"/>
      <point x="95" y="51"/>
      <point x="70" y="137" type="curve"/>
      <point x="106" y="158" type="line"/>
      <point x="126" y="80"/>
      <point x="178" y="25"/>
      <point x="273" y="25" type="curve" smooth="yes"/>
      <point x="386" y="25"/>
      <point x="481" y="99"/>
      <point x="504" y="230" type="curve" smooth="yes"/>
      <point x="524" y="342"/>
      <point x="460" y="419"/>
      <point x="360" y="419" type="curve" smooth="yes"/>
      <point x="280" y="419"/>
      <point x="217" y="390"/>
      <point x="148" y="327" type="curve"/>
      <point x="185" y="371" type="line"/>
      <point x="229" y="418"/>
      <point x="301" y="453"/>
      <point x="379" y="453" type="curve" smooth="yes"/>
      <point x="493" y="453"/>
      <point x="566" y="363"/>
    </contour>
    <contour>
      <point x="328" y="667" type="line"/>
      <point x="207" y="380" type="line"/>
      <point x="148" y="327" type="line"/>
      <point x="305" y="700" type="line"/>
      <point x="635" y="700" type="line"/>
      <point x="630" y="667" type="line"/>
    </contour>
  </outline>
</glyph>
<glyph name="six" format="1">
  <advance width="550"/>
  <unicode hex="0036"/>
  <outline>
    <contour>
      <point x="125" y="224" type="curve" smooth="yes"/>
      <point x="105" y="109"/>
      <point x="167" y="24"/>
      <point x="279" y="24" type="curve" smooth="yes"/>
      <point x="391" y="24"/>
      <point x="484" y="109"/>
      <point x="504" y="224" type="curve" smooth="yes"/>
      <point x="523" y="333"/>
      <point x="455" y="416"/>
      <point x="355" y="416" type="curve" smooth="yes"/>
      <point x="233" y="416"/>
      <point x="143" y="326"/>
    </contour>
    <contour>
      <point x="453" y="700" type="line"/>
      <point x="499" y="700" type="line"/>
      <point x="209" y="375" type="line"/>
      <point x="206" y="377" type="line"/>
      <point x="251" y="422"/>
      <point x="307" y="444"/>
      <point x="371" y="444" type="curve" smooth="yes"/>
      <point x="485" y="444"/>
      <point x="561" y="347"/>
      <point x="539" y="224" type="curve" smooth="yes"/>
      <point x="515" y="86"/>
      <point x="408" y="-10"/>
      <point x="273" y="-10" type="curve" smooth="yes"/>
      <point x="138" y="-10"/>
      <point x="65" y="86"/>
      <point x="89" y="224" type="curve" smooth="yes"/>
      <point x="99" y="281"/>
      <point x="135" y="341"/>
      <point x="169" y="378" type="curve" smooth="yes"/>
    </contour>
  </outline>
</glyph>
<glyph name="semicolon" format="1">
  <advance width="295"/>
  <unicode hex="003B"/>
  <outline>
    <contour>
      <point x="207" y="375" type="curve" smooth="yes"/>
      <point x="210" y="390"/>
      <point x="224" y="401"/>
      <point x="238" y="401" type="curve" smooth="yes"/>
      <point x="252" y="401"/>
      <point x="263" y="390"/>
      <point x="260" y="375" type="curve" smooth="yes"/>
      <point x="257" y="360"/>
      <point x="242" y="348"/>
      <point x="228" y="348" type="curve" smooth="yes"/>
      <point x="214" y="348"/>
      <point x="204" y="360"/>
    </contour>
    <contour>
      <point x="183" y="100" type="line"/>
      <point x="216" y="86" type="line"/>
      <point x="62" y="-164" type="line"/>
      <point x="39" y="-155" type="line"/>
    </contour>
  </outline>
</glyph>
<glyph name="less" format="1">
  <advance width="640"/>
  <unicode hex="003C"/>
  <outline>
    <contour>
      <point x="169" y="259" type="line"/>
      <point x="587" y="69" type="line"/>
      <point x="581" y="34" type="line"/>
      <point x="109" y="247" type="line"/>
      <point x="112" y="267" type="line"/>
      <point x="660" y="481" type="line"/>
      <point x="654" y="446" type="line"/>
    </contour>
  </outline>
</glyph>
<glyph name="equal" format="1">
  <advance width="615"/>
  <unicode hex="003D"/>
  <outline>
    <contour>
      <point x="95" y="169" type="line"/>
      <point x="101" y="202" type="line"/>
      <point x="586" y="202" type="line"/>
      <point x="580" y="169" type="line"/>
    </contour>
    <contour>
      <point x="118" y="303" type="line"/>
      <point x="124" y="336" type="line"/>
      <point x="609" y="336" type="line"/>
      <point x="603" y="303" type="line"/>
    </contour>
  </outline>
</glyph>
<glyph name="greater" format="1">
  <advance width="640"/>
  <unicode hex="003E"/>
  <outline>
    <contour>
      <point x="562" y="256" type="line"/>
      <point x="144" y="446" type="line"/>
      <point x="150" y="481" type="line"/>
      <point x="622" y="268" type="line"/>
      <point x="619" y="248" type="line"/>
      <point x="71" y="34" type="line"/>
      <point x="77" y="69" type="line"/>
    </contour>
  </outline>
</glyph>
<glyph name="J" format="1">
  <advance width="212"/>
  <unicode hex="004A"/>
  <outline>
    <contour>
      <point x="-130" y="-139" type="line"/>
      <point x="-114" y="-162"/>
      <point x="-81" y="-184"/>
      <point x="-39" y="-184" type="curve" smooth="yes"/>
      <point x="29" y="-184"/>
      <point x="64" y="-148"/>
      <point x="81" y="-50" type="curve" smooth="yes"/>
      <point x="213" y="700" type="line"/>
      <point x="249" y="700" type="line"/>
      <point x="115" y="-60" type="line" smooth="yes"/>
      <point x="96" y="-169"/>
      <point x="47" y="-220"/>
      <point x="-47" y="-220" type="curve" smooth="yes"/>
      <point x="-100" y="-220"/>
      <point x="-144" y="-187"/>
      <point x="-155" y="-167" type="curve"/>
    </contour>
  </outline>
</glyph>
<glyph name="K" format="1">
  <advance width="493"/>
  <unicode hex="004B"/>
  <outline>
    <contour>
      <point x="206" y="700" type="line"/>
      <point x="244" y="700" type="line"/>
      <point x="121" y="0" type="line"/>
      <point x="83" y="0" type="line"/>
    </contour>
    <contour>
      <point x="542" y="700" type="line"/>
      <point x="591" y="700" type="line"/>
      <point x="223" y="372" type="line"/>
      <point x="483" y="0" type="line"/>
      <point x="434" y="0" type="line"/>
      <point x="175" y="371" type="line"/>
    </contour>
  </outline>
</glyph>
<glyph name="N" format="1">
  <advance width="704"/>
  <unicode hex="004E"/>
  <outline>
    <contour>
      <point x="184" y="652" type="line"/>
      <point x="188" y="722" type="line"/>
      <point x="630" y="45" type="line"/>
      <point x="627" y="-22" type="line"/>
    </contour>
    <contour>
      <point x="717" y="700" type="line"/>
      <point x="754" y="700" type="line"/>
      <point x="627" y="-22" type="line"/>
      <point x="601" y="38" type="line"/>
    </contour>
    <contour>
      <point x="188" y="722" type="line"/>
      <point x="214" y="659" type="line"/>
      <point x="98" y="0" type="line"/>
      <point x="61" y="0" type="line"/>
    </contour>
  </outline>
</glyph>
<glyph name="O" format="1">
  <advance width="779"/>
  <unicode hex="004F"/>
  <outline>
    <contour>
      <point x="148" y="350" type="curve" smooth="yes"/>
      <point x="115" y="165"/>
      <point x="218" y="29"/>
      <point x="395" y="29" type="curve" smooth="yes"/>
      <point x="572" y="29"/>
      <point x="723" y="165"/>
      <point x="756" y="350" type="curve" smooth="yes"/>
      <point x="789" y="535"/>
      <point x="685" y="671"/>
      <point x="508" y="671" type="curve" smooth="yes"/>
      <point x="331" y="671"/>
      <point x="181" y="535"/>
    </contour>
    <contour>
      <point x="108" y="350" type="curve" smooth="yes"/>
      <point x="144" y="557"/>
      <point x="317" y="709"/>
      <point x="515" y="709" type="curve" smooth="yes"/>
      <point x="713" y="709"/>
      <point x="832" y="557"/>
      <point x="796" y="350" type="curve" smooth="yes"/>
      <point x="760" y="143"/>
      <point x="586" y="-9"/>
      <point x="388" y="-9" type="curve" smooth="yes"/>
      <point x="190" y="-9"/>
      <point x="72" y="143"/>
    </contour>
  </outline>
</glyph>
<glyph name="V" format="1">
  <advance width="621"/>
  <unicode hex="0056"/>
  <outline>
    <contour>
      <point x="323" y="67" type="line"/>
      <point x="691" y="700" type="line"/>
      <point x="733" y="700" type="line"/>
      <point x="307" y="-22" type="line"/>
      <point x="134" y="700" type="line"/>
      <point x="177" y="700" type="line"/>
    </contour>
  </outline>
</glyph>
<glyph name="Y" format="1">
  <advance width="526"/>
  <unicode hex="0059"/>
  <outline>
    <contour>
      <point x="295" y="306" type="line"/>
      <point x="333" y="306" type="line"/>
      <point x="279" y="0" type="line"/>
      <point x="241" y="0" type="line"/>
    </contour>
    <contour>
      <point x="595" y="700" type="line"/>
      <point x="638" y="700" type="line"/>
      <point x="303" y="246" type="line"/>
      <point x="134" y="700" type="line"/>
      <point x="177" y="700" type="line"/>
      <point x="316" y="315" type="line"/>
    </contour>
  </outline>
</glyph>
<glyph name="backslash" format="1">
  <advance width="463"/>
  <unicode hex="005C"/>
  <outline>
    <contour>
      <point x="138" y="700" type="line"/>
      <point x="177" y="700" type="line"/>
      <point x="449" y="0" type="line"/>
      <point x="410" y="0" type="line"/>
    </contour>
  </outline>
</glyph>
<glyph name="grave" format="1">
  <advance width="360"/>
  <unicode hex="0060"/>
  <outline>
    <contour>
      <point x="211" y="681" type="line"/>
      <point x="246" y="700" type="line"/>
      <point x="381" y="540" type="line"/>
      <point x="359" y="526" type="line"/>
    </contour>
  </outline>
</glyph>
<glyph name="d" format="1">
  <advance width="551"/>
  <unicode hex="0064"/>
  <outline>
    <contour>
      <point x="578" y="780" type="line"/>
      <point x="613" y="780" type="line"/>
      <point x="475" y="0" type="line"/>
      <point x="440" y="0" type="line"/>
    </contour>
    <contour>
      <point x="82" y="230" type="curve" smooth="yes"/>
      <point x="108" y="378"/>
      <point x="221" y="470"/>
      <point x="343" y="470" type="curve" smooth="yes"/>
      <point x="463" y="470"/>
      <point x="520" y="360"/>
      <point x="497" y="230" type="curve" smooth="yes"/>
      <point x="474" y="100"/>
      <point x="378" y="-10"/>
      <point x="258" y="-10" type="curve" smooth="yes"/>
      <point x="136" y="-10"/>
      <point x="56" y="82"/>
    </contour>
    <contour>
      <point x="118" y="230" type="curve" smooth="yes"/>
      <point x="95" y="102"/>
      <point x="164" y="23"/>
      <point x="269" y="23" type="curve" smooth="yes"/>
      <point x="364" y="23"/>
      <point x="461" y="118"/>
      <point x="481" y="230" type="curve" smooth="yes"/>
      <point x="501" y="342"/>
      <point x="437" y="437"/>
      <point x="342" y="437" type="curve" smooth="yes"/>
      <point x="237" y="437"/>
      <point x="141" y="358"/>
    </contour>
  </outline>
</glyph>
<glyph name="f" format="1">
  <advance width="280"/>
  <unicode hex="0066"/>
  <outline>
    <contour>
      <point x="127" y="460" type="line"/>
      <point x="335" y="460" type="line"/>
      <point x="329" y="427" type="line"/>
      <point x="121" y="427" type="line"/>
    </contour>
    <contour>
      <point x="400" y="716" type="line"/>
      <point x="389" y="737"/>
      <point x="369" y="753"/>
      <point x="340" y="753" type="curve" smooth="yes"/>
      <point x="278" y="753"/>
      <point x="251" y="699"/>
      <point x="240" y="639" type="curve" smooth="yes"/>
      <point x="127" y="0" type="line"/>
      <point x="91" y="0" type="line"/>
      <point x="204" y="643" type="line" smooth="yes"/>
      <point x="219" y="726"/>
      <point x="263" y="789"/>
      <point x="347" y="789" type="curve" smooth="yes"/>
      <point x="390" y="789"/>
      <point x="415" y="764"/>
      <point x="426" y="744" type="curve"/>
    </contour>
  </outline>
</glyph>
<glyph name="l" format="1">
  <advance width="198"/>
  <unicode hex="006C"/>
  <outline>
    <contour>
      <point x="219" y="780" type="line"/>
      <point x="255" y="780" type="line"/>
      <point x="117" y="0" type="line"/>
      <point x="81" y="0" type="line"/>
    </contour>
  </outline>
</glyph>
<glyph name="braceleft" format="1">
  <advance width="291"/>
  <unicode hex="007B"/>
  <outline>
    <contour>
      <point x="273" y="647" type="curve" smooth="yes"/>
      <point x="239" y="452" type="line" smooth="yes"/>
      <point x="223" y="363"/>
      <point x="183" y="285"/>
      <point x="125" y="285" type="curve"/>
      <point x="127" y="295" type="line"/>
      <point x="185" y="295"/>
      <point x="198" y="217"/>
      <point x="182" y="128" type="curve" smooth="yes"/>
      <point x="147" y="-67" type="line" smooth="yes"/>
      <point x="134" y="-138"/>
      <point x="147" y="-168"/>
      <point x="199" y="-168" type="curve" smooth="yes"/>
      <point x="225" y="-168" type="line"/>
      <point x="220" y="-200" type="line"/>
      <point x="185" y="-200" type="line" smooth="yes"/>
      <point x="122" y="-200"/>
      <point x="96" y="-159"/>
      <point x="113" y="-60" type="curve" smooth="yes"/>
      <point x="150" y="150" type="line" smooth="yes"/>
      <point x="163" y="226"/>
      <point x="146" y="266"/>
      <point x="118" y="276" type="curve"/>
      <point x="123" y="304" type="line"/>
      <point x="155" y="314"/>
      <point x="187" y="354"/>
      <point x="200" y="430" type="curve" smooth="yes"/>
      <point x="237" y="640" type="line" smooth="yes"/>
      <point x="254" y="739"/>
      <point x="295" y="780"/>
      <point x="358" y="780" type="curve" smooth="yes"/>
      <point x="393" y="780" type="line"/>
      <point x="387" y="748" type="line"/>
      <point x="361" y="748" type="line" smooth="yes"/>
      <point x="309" y="748"/>
      <point x="286" y="718"/>
    </contour>
  </outline>
</glyph>
<glyph name="braceright" format="1">
  <advance width="291"/>
  <unicode hex="007D"/>
  <outline>
    <contour>
      <point x="124" y="-67" type="curve" smooth="yes"/>
      <point x="159" y="128" type="line" smooth="yes"/>
      <point x="175" y="217"/>
      <point x="214" y="295"/>
      <point x="272" y="295" type="curve"/>
      <point x="270" y="285" type="line"/>
      <point x="212" y="285"/>
      <point x="200" y="363"/>
      <point x="216" y="452" type="curve" smooth="yes"/>
      <point x="250" y="647" type="line" smooth="yes"/>
      <point x="263" y="718"/>
      <point x="250" y="748"/>
      <point x="198" y="748" type="curve" smooth="yes"/>
      <point x="172" y="748" type="line"/>
      <point x="178" y="780" type="line"/>
      <point x="213" y="780" type="line" smooth="yes"/>
      <point x="276" y="780"/>
      <point x="301" y="739"/>
      <point x="284" y="640" type="curve" smooth="yes"/>
      <point x="247" y="430" type="line" smooth="yes"/>
      <point x="234" y="354"/>
      <point x="252" y="314"/>
      <point x="280" y="304" type="curve"/>
      <point x="275" y="276" type="line"/>
      <point x="243" y="266"/>
      <point x="210" y="226"/>
      <point x="197" y="150" type="curve" smooth="yes"/>
      <point x="160" y="-60" type="line" smooth="yes"/>
      <point x="143" y="-159"/>
      <point x="103" y="-200"/>
      <point x="40" y="-200" type="curve" smooth="yes"/>
      <point x="5" y="-200" type="line"/>
      <point x="10" y="-168" type="line"/>
      <point x="36" y="-168" type="line" smooth="yes"/>
      <point x="88" y="-168"/>
      <point x="111" y="-138"/>
    </contour>
  </outline>
</glyph>
<glyph name="cent" format="1">
  <advance width="580"/>
  <unicode hex="00A2"/>
  <outline>
    <contour>
      <point x="305" y="11" type="line"/>
      <point x="330" y="11" type="line"/>
      <point x="312" y="-112" type="line"/>
      <point x="280" y="-112" type="line"/>
    </contour>
    <contour>
      <point x="161" y="230" type="curve" smooth="yes"/>
      <point x="140" y="112"/>
      <point x="209" y="23"/>
      <point x="323" y="23" type="curve" smooth="yes"/>
      <point x="397" y="23"/>
      <point x="465" y="61"/>
      <point x="492" y="93" type="curve"/>
      <point x="485" y="49" type="line"/>
      <point x="454" y="19"/>
      <point x="386" y="-10"/>
      <point x="317" y="-10" type="curve" smooth="yes"/>
      <point x="184" y="-10"/>
      <point x="100" y="91"/>
      <point x="125" y="230" type="curve" smooth="yes"/>
      <point x="150" y="369"/>
      <point x="269" y="470"/>
      <point x="402" y="470" type="curve" smooth="yes"/>
      <point x="471" y="470"/>
      <point x="528" y="440"/>
      <point x="548" y="411" type="curve"/>
      <point x="541" y="367" type="line"/>
      <point x="526" y="399"/>
      <point x="470" y="437"/>
      <point x="396" y="437" type="curve" smooth="yes"/>
      <point x="282" y="437"/>
      <point x="182" y="348"/>
    </contour>
    <contour>
      <point x="402" y="578" type="line"/>
      <point x="434" y="578" type="line"/>
      <point x="407" y="450" type="line"/>
      <point x="382" y="450" type="line"/>
    </contour>
  </outline>
</glyph>
<glyph name="copyright" format="1">
  <advance width="800"/>
  <unicode hex="00A9"/>
  <outline>
    <contour>
      <point x="275" y="350" type="curve" smooth="yes"/>
      <point x="255" y="238"/>
      <point x="315" y="158"/>
      <point x="419" y="158" type="curve" smooth="yes"/>
      <point x="478" y="158"/>
      <point x="524" y="177"/>
      <point x="563" y="212" type="curve"/>
      <point x="558" y="182" type="line"/>
      <point x="518" y="151"/>
      <point x="476" y="134"/>
      <point x="415" y="134" type="curve" smooth="yes"/>
      <point x="299" y="134"/>
      <point x="229" y="225"/>
      <point x="251" y="350" type="curve" smooth="yes"/>
      <point x="273" y="475"/>
      <point x="375" y="566"/>
      <point x="491" y="566" type="curve" smooth="yes"/>
      <point x="552" y="566"/>
      <point x="587" y="549"/>
      <point x="617" y="518" type="curve"/>
      <point x="612" y="488" type="line"/>
      <point x="586" y="523"/>
      <point x="544" y="542"/>
      <point x="487" y="542" type="curve" smooth="yes"/>
      <point x="384" y="542"/>
      <point x="295" y="464"/>
    </contour>
    <contour>
      <point x="128" y="350" type="curve" smooth="yes"/>
      <point x="94" y="156"/>
      <point x="216" y="14"/>
      <point x="402" y="14" type="curve" smooth="yes"/>
      <point x="588" y="14"/>
      <point x="762" y="156"/>
      <point x="796" y="350" type="curve" smooth="yes"/>
      <point x="830" y="544"/>
      <point x="707" y="686"/>
      <point x="521" y="686" type="curve" smooth="yes"/>
      <point x="335" y="686"/>
      <point x="162" y="544"/>
    </contour>
    <contour>
      <point x="102" y="350" type="curve" smooth="yes"/>
      <point x="139" y="559"/>
      <point x="321" y="710"/>
      <point x="525" y="710" type="curve" smooth="yes"/>
      <point x="729" y="710"/>
      <point x="859" y="559"/>
      <point x="822" y="350" type="curve" smooth="yes"/>
      <point x="785" y="141"/>
      <point x="602" y="-10"/>
      <point x="398" y="-10" type="curve" smooth="yes"/>
      <point x="194" y="-10"/>
      <point x="65" y="141"/>
    </contour>
  </outline>
</glyph>
<glyph name="guillemotleft" format="1">
  <advance width="494"/>
  <unicode hex="00AB"/>
  <outline>
    <contour>
      <point x="116" y="248" type="line"/>
      <point x="85" y="255" type="line"/>
      <point x="327" y="490" type="line"/>
      <point x="347" y="469" type="line"/>
    </contour>
    <contour>
      <point x="85" y="255" type="line"/>
      <point x="119" y="266" type="line"/>
      <point x="271" y="41" type="line"/>
      <point x="245" y="20" type="line"/>
    </contour>
    <contour>
      <point x="276" y="248" type="line"/>
      <point x="245" y="255" type="line"/>
      <point x="487" y="490" type="line"/>
      <point x="507" y="469" type="line"/>
    </contour>
    <contour>
      <point x="245" y="255" type="line"/>
      <point x="279" y="266" type="line"/>
      <point x="431" y="41" type="line"/>
      <point x="405" y="20" type="line"/>
    </contour>
  </outline>
</glyph>
<glyph name="degree" format="1">
  <advance width="278"/>
  <unicode hex="00B0"/>
  <outline>
    <contour>
      <point x="126" y="600" type="curve" smooth="yes"/>
      <point x="138" y="670"/>
      <point x="198" y="720"/>
      <point x="266" y="720" type="curve" smooth="yes"/>
      <point x="334" y="720"/>
      <point x="376" y="670"/>
      <point x="364" y="600" type="curve" smooth="yes"/>
      <point x="352" y="530"/>
      <point x="292" y="480"/>
      <point x="224" y="480" type="curve" smooth="yes"/>
      <point x="156" y="480"/>
      <point x="114" y="530"/>
    </contour>
    <contour>
      <point x="147" y="600" type="curve" smooth="yes"/>
      <point x="137" y="541"/>
      <point x="172" y="500"/>
      <point x="227" y="500" type="curve" smooth="yes"/>
      <point x="282" y="500"/>
      <point x="333" y="541"/>
      <point x="343" y="600" type="curve" smooth="yes"/>
      <point x="353" y="659"/>
      <point x="317" y="700"/>
      <point x="262" y="700" type="curve" smooth="yes"/>
      <point x="207" y="700"/>
      <point x="157" y="659"/>
    </contour>
  </outline>
</glyph>
<glyph name="uni00B3" format="1">
  <advance width="309"/>
  <unicode hex="00B3"/>
  <outline>
    <contour>
      <point x="228" y="493" type="curve"/>
      <point x="231" y="509" type="line"/>
      <point x="285" y="509"/>
      <point x="346" y="544"/>
      <point x="356" y="598" type="curve" smooth="yes"/>
      <point x="364" y="644"/>
      <point x="341" y="686"/>
      <point x="283" y="686" type="curve" smooth="yes"/>
      <point x="228" y="686"/>
      <point x="182" y="649"/>
      <point x="173" y="596" type="curve"/>
      <point x="151" y="596" type="line"/>
      <point x="162" y="661"/>
      <point x="217" y="706"/>
      <point x="286" y="706" type="curve" smooth="yes"/>
      <point x="358" y="706"/>
      <point x="388" y="653"/>
      <point x="378" y="598" type="curve" smooth="yes"/>
      <point x="367" y="535"/>
      <point x="298" y="493"/>
    </contour>
    <contour>
      <point x="207" y="274" type="curve" smooth="yes"/>
      <point x="126" y="274"/>
      <point x="86" y="326"/>
      <point x="97" y="391" type="curve"/>
      <point x="120" y="391" type="line"/>
      <point x="110" y="335"/>
      <point x="144" y="295"/>
      <point x="211" y="295" type="curve" smooth="yes"/>
      <point x="275" y="295"/>
      <point x="322" y="333"/>
      <point x="332" y="389" type="curve" smooth="yes"/>
      <point x="344" y="456"/>
      <point x="281" y="488"/>
      <point x="227" y="488" type="curve"/>
      <point x="230" y="503" type="line"/>
      <point x="300" y="503"/>
      <point x="367" y="466"/>
      <point x="353" y="387" type="curve" smooth="yes"/>
      <point x="341" y="320"/>
      <point x="282" y="274"/>
    </contour>
  </outline>
</glyph>
<glyph name="acute" format="1">
  <advance width="360"/>
  <unicode hex="00B4"/>
  <outline>
    <contour>
      <point x="390" y="681" type="line"/>
      <point x="187" y="526" type="line"/>
      <point x="170" y="540" type="line"/>
      <point x="361" y="700" type="line"/>
    </contour>
  </outline>
</glyph>
<glyph name="paragraph" format="1">
  <advance width="494"/>
  <unicode hex="00B6"/>
  <outline>
    <contour>
      <point x="406" y="670" type="line"/>
      <point x="411" y="700" type="line"/>
      <point x="547" y="700" type="line"/>
      <point x="542" y="670" type="line"/>
    </contour>
    <contour>
      <point x="526" y="700" type="line"/>
      <point x="558" y="700" type="line"/>
      <point x="396" y="-220" type="line"/>
      <point x="364" y="-220" type="line"/>
    </contour>
    <contour>
      <point x="411" y="700" type="line"/>
      <point x="443" y="700" type="line"/>
      <point x="281" y="-220" type="line"/>
      <point x="249" y="-220" type="line"/>
    </contour>
    <contour>
      <point x="336" y="270" type="line"/>
      <point x="211" y="270"/>
      <point x="121" y="346"/>
      <point x="146" y="485" type="curve" smooth="yes"/>
      <point x="171" y="624"/>
      <point x="286" y="700"/>
      <point x="411" y="700" type="curve"/>
    </contour>
  </outline>
</glyph>
<glyph name="uni00B9" format="1">
  <advance width="470"/>
  <unicode hex="00B9"/>
  <outline>
    <contour>
      <point x="260" y="646" type="line"/>
      <point x="264" y="670" type="line"/>
      <point x="390" y="698" type="line"/>
      <point x="315" y="274" type="line"/>
      <point x="293" y="274" type="line"/>
      <point x="363" y="671" type="line"/>
    </contour>
  </outline>
</glyph>
<glyph name="ordmasculine" format="1">
  <advance width="278"/>
  <unicode hex="00BA"/>
  <outline>
    <contour>
      <point x="122" y="580" type="curve" smooth="yes"/>
      <point x="134" y="650"/>
      <point x="194" y="700"/>
      <point x="262" y="700" type="curve" smooth="yes"/>
      <point x="330" y="700"/>
      <point x="372" y="650"/>
      <point x="360" y="580" type="curve" smooth="yes"/>
      <point x="348" y="510"/>
      <point x="288" y="460"/>
      <point x="220" y="460" type="curve" smooth="yes"/>
      <point x="152" y="460"/>
      <point x="110" y="510"/>
    </contour>
    <contour>
      <point x="143" y="580" type="curve" smooth="yes"/>
      <point x="133" y="521"/>
      <point x="169" y="480"/>
      <point x="224" y="480" type="curve" smooth="yes"/>
      <point x="279" y="480"/>
      <point x="329" y="521"/>
      <point x="339" y="580" type="curve" smooth="yes"/>
      <point x="349" y="639"/>
      <point x="314" y="680"/>
      <point x="259" y="680" type="curve" smooth="yes"/>
      <point x="204" y="680"/>
      <point x="153" y="639"/>
    </contour>
  </outline>
</glyph>
<glyph name="guillemotright" format="1">
  <advance width="494"/>
  <unicode hex="00BB"/>
  <outline>
    <contour>
      <point x="468" y="262" type="line"/>
      <point x="499" y="255" type="line"/>
      <point x="257" y="20" type="line"/>
      <point x="237" y="41" type="line"/>
    </contour>
    <contour>
      <point x="499" y="255" type="line"/>
      <point x="465" y="244" type="line"/>
      <point x="313" y="469" type="line"/>
      <point x="339" y="490" type="line"/>
    </contour>
    <contour>
      <point x="308" y="262" type="line"/>
      <point x="339" y="255" type="line"/>
      <point x="97" y="20" type="line"/>
      <point x="77" y="41" type="line"/>
    </contour>
    <contour>
      <point x="339" y="255" type="line"/>
      <point x="305" y="244" type="line"/>
      <point x="153" y="469" type="line"/>
      <point x="179" y="490" type="line"/>
    </contour>
  </outline>
</glyph>
<glyph name="threequarters" format="1">
  <advance width="820"/>
  <unicode hex="00BE"/>
  <outline>
    <contour>
      <point x="842" y="700" type="line"/>
      <point x="873" y="700" type="line"/>
      <point x="196" y="0" type="line"/>
      <point x="165" y="0" type="line"/>
    </contour>
    <contour>
      <point x="233" y="493" type="curve"/>
      <point x="236" y="509" type="line"/>
      <point x="290" y="509"/>
      <point x="351" y="544"/>
      <point x="361" y="598" type="curve" smooth="yes"/>
      <point x="369" y="644"/>
      <point x="346" y="686"/>
      <point x="288" y="686" type="curve" smooth="yes"/>
      <point x="233" y="686"/>
      <point x="187" y="649"/>
      <point x="178" y="596" type="curve"/>
      <point x="156" y="596" type="line"/>
      <point x="167" y="661"/>
      <point x="222" y="706"/>
      <point x="291" y="706" type="curve" smooth="yes"/>
      <point x="363" y="706"/>
      <point x="393" y="653"/>
      <point x="383" y="598" type="curve" smooth="yes"/>
      <point x="372" y="535"/>
      <point x="303" y="493"/>
    </contour>
    <contour>
      <point x="212" y="274" type="curve" smooth="yes"/>
      <point x="131" y="274"/>
      <point x="91" y="326"/>
      <point x="102" y="391" type="curve"/>
      <point x="125" y="391" type="line"/>
      <point x="115" y="335"/>
      <point x="149" y="295"/>
      <point x="216" y="295" type="curve" smooth="yes"/>
      <point x="280" y="295"/>
      <point x="327" y="333"/>
      <point x="337" y="389" type="curve" smooth="yes"/>
      <point x="349" y="456"/>
      <point x="286" y="488"/>
      <point x="232" y="488" type="curve"/>
      <point x="235" y="503" type="line"/>
      <point x="305" y="503"/>
      <point x="372" y="466"/>
      <point x="358" y="387" type="curve" smooth="yes"/>
      <point x="346" y="320"/>
      <point x="287" y="274"/>
    </contour>
    <contour>
      <point x="482" y="84" type="line"/>
      <point x="504" y="104" type="line"/>
      <point x="710" y="104" type="line" smooth="yes"/>
      <point x="715" y="104" type="line" smooth="yes"/>
      <point x="790" y="104" type="line"/>
      <point x="787" y="84" type="line"/>
    </contour>
    <contour>
      <point x="506" y="84" type="line"/>
      <point x="482" y="84" type="line"/>
      <point x="772" y="420" type="line"/>
      <point x="780" y="420" type="line"/>
      <point x="706" y="0" type="line"/>
      <point x="684" y="0" type="line"/>
      <point x="700" y="93" type="line" smooth="yes"/>
      <point x="701" y="96" type="line" smooth="yes"/>
      <point x="749" y="366" type="line"/>
    </contour>
  </outline>
</glyph>
<glyph name="Agrave" format="1">
  <advance width="621"/>
  <unicode hex="00C0"/>
  <outline>
    <contour>
      <point x="178" y="250" type="line"/>
      <point x="195" y="285" type="line"/>
      <point x="527" y="285" type="line"/>
      <point x="532" y="250" type="line"/>
    </contour>
    <contour>
      <point x="423" y="635" type="line"/>
      <point x="212" y="272" type="line"/>
      <point x="206" y="263" type="line"/>
      <point x="53" y="0" type="line"/>
      <point x="11" y="0" type="line"/>
      <point x="438" y="722" type="line"/>
      <point x="610" y="0" type="line"/>
      <point x="568" y="0" type="line"/>
      <point x="509" y="261" type="line"/>
      <point x="508" y="270" type="line"/>
    </contour>
    <contour>
      <point x="342" y="937" type="line"/>
      <point x="378" y="956" type="line"/>
      <point x="512" y="796" type="line"/>
      <point x="491" y="782" type="line"/>
    </contour>
  </outline>
</glyph>
<glyph name="Acircumflex" format="1">
  <advance width="621"/>
  <unicode hex="00C2"/>
  <outline>
    <contour>
      <point x="178" y="250" type="line"/>
      <point x="195" y="285" type="line"/>
      <point x="527" y="285" type="line"/>
      <point x="532" y="250" type="line"/>
    </contour>
    <contour>
      <point x="423" y="635" type="line"/>
      <point x="212" y="272" type="line"/>
      <point x="206" y="263" type="line"/>
      <point x="53" y="0" type="line"/>
      <point x="11" y="0" type="line"/>
      <point x="438" y="722" type="line"/>
      <point x="610" y="0" type="line"/>
      <point x="568" y="0" type="line"/>
      <point x="509" y="261" type="line"/>
      <point x="508" y="270" type="line"/>
    </contour>
    <contour>
      <point x="468" y="888" type="line"/>
      <point x="308" y="768" type="line"/>
      <point x="290" y="787" type="line"/>
      <point x="474" y="927" type="line"/>
      <point x="610" y="787" type="line"/>
      <point x="583" y="768" type="line"/>
    </contour>
  </outline>
</glyph>
<glyph name="Atilde" format="1">
  <advance width="621"/>
  <unicode hex="00C3"/>
  <outline>
    <contour>
      <point x="178" y="250" type="line"/>
      <point x="195" y="285" type="line"/>
      <point x="527" y="285" type="line"/>
      <point x="532" y="250" type="line"/>
    </contour>
    <contour>
      <point x="423" y="635" type="line"/>
      <point x="212" y="272" type="line"/>
      <point x="206" y="263" type="line"/>
      <point x="53" y="0" type="line"/>
      <point x="11" y="0" type="line"/>
      <point x="438" y="722" type="line"/>
      <point x="610" y="0" type="line"/>
      <point x="568" y="0" type="line"/>
      <point x="509" y="261" type="line"/>
      <point x="508" y="270" type="line"/>
    </contour>
    <contour>
      <point x="312" y="802" type="line"/>
      <point x="322" y="838"/>
      <point x="356" y="868"/>
      <point x="401" y="868" type="curve" smooth="yes"/>
      <point x="460" y="868"/>
      <point x="463" y="821"/>
      <point x="517" y="821" type="curve" smooth="yes"/>
      <point x="542" y="821"/>
      <point x="558" y="837"/>
      <point x="581" y="869" type="curve"/>
      <point x="601" y="852" type="line"/>
      <point x="578" y="815"/>
      <point x="547" y="792"/>
      <point x="510" y="792" type="curve" smooth="yes"/>
      <point x="455" y="792"/>
      <point x="442" y="839"/>
      <point x="397" y="839" type="curve" smooth="yes"/>
      <point x="356" y="839"/>
      <point x="339" y="809"/>
      <point x="335" y="788" type="curve"/>
    </contour>
  </outline>
</glyph>
<glyph name="Aring" format="1">
  <advance width="621"/>
  <unicode hex="00C5"/>
  <outline>
    <contour>
      <point x="178" y="250" type="line"/>
      <point x="195" y="285" type="line"/>
      <point x="527" y="285" type="line"/>
      <point x="532" y="250" type="line"/>
    </contour>
    <contour>
      <point x="423" y="635" type="line"/>
      <point x="212" y="272" type="line"/>
      <point x="206" y="263" type="line"/>
      <point x="53" y="0" type="line"/>
      <point x="11" y="0" type="line"/>
      <point x="438" y="722" type="line"/>
      <point x="610" y="0" type="line"/>
      <point x="568" y="0" type="line"/>
      <point x="509" y="261" type="line"/>
      <point x="508" y="270" type="line"/>
    </contour>
    <contour>
      <point x="351" y="804" type="curve" smooth="yes"/>
      <point x="362" y="864"/>
      <point x="418" y="904"/>
      <point x="470" y="904" type="curve" smooth="yes"/>
      <point x="522" y="904"/>
      <point x="566" y="864"/>
      <point x="555" y="804" type="curve" smooth="yes"/>
      <point x="544" y="744"/>
      <point x="487" y="704"/>
      <point x="435" y="704" type="curve" smooth="yes"/>
      <point x="383" y="704"/>
      <point x="340" y="744"/>
    </contour>
    <contour>
      <point x="376" y="804" type="curve" smooth="yes"/>
      <point x="368" y="758"/>
      <point x="399" y="728"/>
      <point x="439" y="728" type="curve" smooth="yes"/>
      <point x="479" y="728"/>
      <point x="522" y="758"/>
      <point x="530" y="804" type="curve" smooth="yes"/>
      <point x="538" y="850"/>
      <point x="506" y="881"/>
      <point x="466" y="881" type="curve" smooth="yes"/>
      <point x="426" y="881"/>
      <point x="384" y="850"/>
    </contour>
  </outline>
</glyph>
<glyph name="Egrave" format="1">
  <advance width="524"/>
  <unicode hex="00C8"/>
  <outline>
    <contour>
      <point x="105" y="0" type="line"/>
      <point x="111" y="35" type="line"/>
      <point x="454" y="35" type="line"/>
      <point x="448" y="0" type="line"/>
    </contour>
    <contour>
      <point x="222" y="665" type="line"/>
      <point x="228" y="700" type="line"/>
      <point x="571" y="700" type="line"/>
      <point x="565" y="665" type="line"/>
    </contour>
    <contour>
      <point x="170" y="368" type="line"/>
      <point x="176" y="404" type="line"/>
      <point x="499" y="404" type="line"/>
      <point x="493" y="368" type="line"/>
    </contour>
    <contour>
      <point x="209" y="700" type="line"/>
      <point x="247" y="700" type="line"/>
      <point x="124" y="0" type="line"/>
      <point x="86" y="0" type="line"/>
    </contour>
    <contour>
      <point x="284" y="923" type="line"/>
      <point x="319" y="943" type="line"/>
      <point x="454" y="783" type="line"/>
      <point x="433" y="769" type="line"/>
    </contour>
  </outline>
</glyph>
<glyph name="Edieresis" format="1">
  <advance width="524"/>
  <unicode hex="00CB"/>
  <outline>
    <contour>
      <point x="105" y="0" type="line"/>
      <point x="111" y="35" type="line"/>
      <point x="454" y="35" type="line"/>
      <point x="448" y="0" type="line"/>
    </contour>
    <contour>
      <point x="222" y="665" type="line"/>
      <point x="228" y="700" type="line"/>
      <point x="571" y="700" type="line"/>
      <point x="565" y="665" type="line"/>
    </contour>
    <contour>
      <point x="170" y="368" type="line"/>
      <point x="176" y="404" type="line"/>
      <point x="499" y="404" type="line"/>
      <point x="493" y="368" type="line"/>
    </contour>
    <contour>
      <point x="209" y="700" type="line"/>
      <point x="247" y="700" type="line"/>
      <point x="124" y="0" type="line"/>
      <point x="86" y="0" type="line"/>
    </contour>
    <contour>
      <point x="488" y="816" type="curve" smooth="yes"/>
      <point x="491" y="831"/>
      <point x="505" y="842"/>
      <point x="519" y="842" type="curve" smooth="yes"/>
      <point x="533" y="842"/>
      <point x="544" y="831"/>
      <point x="541" y="816" type="curve" smooth="yes"/>
      <point x="538" y="801"/>
      <point x="524" y="789"/>
      <point x="510" y="789" type="curve" smooth="yes"/>
      <point x="496" y="789"/>
      <point x="485" y="801"/>
    </contour>
    <contour>
      <point x="288" y="816" type="curve" smooth="yes"/>
      <point x="291" y="831"/>
      <point x="305" y="842"/>
      <point x="319" y="842" type="curve" smooth="yes"/>
      <point x="333" y="842"/>
      <point x="344" y="831"/>
      <point x="341" y="816" type="curve" smooth="yes"/>
      <point x="338" y="801"/>
      <point x="324" y="789"/>
      <point x="310" y="789" type="curve" smooth="yes"/>
      <point x="296" y="789"/>
      <point x="285" y="801"/>
    </contour>
  </outline>
</glyph>
<glyph name="Igrave" format="1">
  <advance width="203"/>
  <unicode hex="00CC"/>
  <outline>
    <contour>
      <point x="206" y="700" type="line"/>
      <point x="243" y="700" type="line"/>
      <point x="120" y="0" type="line"/>
      <point x="83" y="0" type="line"/>
    </contour>
    <contour>
      <point x="118" y="923" type="line"/>
      <point x="154" y="943" type="line"/>
      <point x="288" y="783" type="line"/>
      <point x="267" y="769" type="line"/>
    </contour>
  </outline>
</glyph>
<glyph name="Icircumflex" format="1">
  <advance width="203"/>
  <unicode hex="00CE"/>
  <outline>
    <contour>
      <point x="206" y="700" type="line"/>
      <point x="243" y="700" type="line"/>
      <point x="120" y="0" type="line"/>
      <point x="83" y="0" type="line"/>
    </contour>
    <contour>
      <point x="258" y="889" type="line"/>
      <point x="100" y="769" type="line"/>
      <point x="80" y="788" type="line"/>
      <point x="265" y="928" type="line"/>
      <point x="400" y="788" type="line"/>
      <point x="375" y="769" type="line"/>
    </contour>
  </outline>
</glyph>
<glyph name="Idieresis" format="1">
  <advance width="203"/>
  <unicode hex="00CF"/>
  <outline>
    <contour>
      <point x="206" y="700" type="line"/>
      <point x="243" y="700" type="line"/>
      <point x="120" y="0" type="line"/>
      <point x="83" y="0" type="line"/>
    </contour>
    <contour>
      <point x="299" y="809" type="curve" smooth="yes"/>
      <point x="302" y="824"/>
      <point x="315" y="835"/>
      <point x="329" y="835" type="curve" smooth="yes"/>
      <point x="343" y="835"/>
      <point x="355" y="824"/>
      <point x="352" y="809" type="curve" smooth="yes"/>
      <point x="349" y="794"/>
      <point x="334" y="781"/>
      <point x="320" y="781" type="curve" smooth="yes"/>
      <point x="306" y="781"/>
      <point x="296" y="794"/>
    </contour>
    <contour>
      <point x="137" y="809" type="curve" smooth="yes"/>
      <point x="140" y="824"/>
      <point x="154" y="835"/>
      <point x="168" y="835" type="curve" smooth="yes"/>
      <point x="182" y="835"/>
      <point x="194" y="824"/>
      <point x="191" y="809" type="curve" smooth="yes"/>
      <point x="188" y="794"/>
      <point x="173" y="781"/>
      <point x="159" y="781" type="curve" smooth="yes"/>
      <point x="145" y="781"/>
      <point x="134" y="794"/>
    </contour>
  </outline>
</glyph>
<glyph name="Ntilde" format="1">
  <advance width="704"/>
  <unicode hex="00D1"/>
  <outline>
    <contour>
      <point x="184" y="652" type="line"/>
      <point x="188" y="722" type="line"/>
      <point x="630" y="45" type="line"/>
      <point x="627" y="-22" type="line"/>
    </contour>
    <contour>
      <point x="717" y="700" type="line"/>
      <point x="754" y="700" type="line"/>
      <point x="627" y="-22" type="line"/>
      <point x="601" y="38" type="line"/>
    </contour>
    <contour>
      <point x="188" y="722" type="line"/>
      <point x="214" y="659" type="line"/>
      <point x="98" y="0" type="line"/>
      <point x="61" y="0" type="line"/>
    </contour>
    <contour>
      <point x="356" y="782" type="line"/>
      <point x="366" y="818"/>
      <point x="400" y="848"/>
      <point x="445" y="848" type="curve" smooth="yes"/>
      <point x="504" y="848"/>
      <point x="506" y="801"/>
      <point x="560" y="801" type="curve" smooth="yes"/>
      <point x="585" y="801"/>
      <point x="602" y="817"/>
      <point x="625" y="849" type="curve"/>
      <point x="645" y="832" type="line"/>
      <point x="622" y="795"/>
      <point x="590" y="772"/>
      <point x="553" y="772" type="curve" smooth="yes"/>
      <point x="498" y="772"/>
      <point x="485" y="819"/>
      <point x="440" y="819" type="curve" smooth="yes"/>
      <point x="399" y="819"/>
      <point x="382" y="789"/>
      <point x="378" y="768" type="curve"/>
    </contour>
  </outline>
</glyph>
<glyph name="Otilde" format="1">
  <advance width="779"/>
  <unicode hex="00D5"/>
  <outline>
    <contour>
      <point x="148" y="350" type="curve" smooth="yes"/>
      <point x="115" y="165"/>
      <point x="218" y="29"/>
      <point x="395" y="29" type="curve" smooth="yes"/>
      <point x="572" y="29"/>
      <point x="723" y="165"/>
      <point x="756" y="350" type="curve" smooth="yes"/>
      <point x="789" y="535"/>
      <point x="685" y="671"/>
      <point x="508" y="671" type="curve" smooth="yes"/>
      <point x="331" y="671"/>
      <point x="181" y="535"/>
    </contour>
    <contour>
      <point x="108" y="350" type="curve" smooth="yes"/>
      <point x="144" y="557"/>
      <point x="317" y="709"/>
      <point x="515" y="709" type="curve" smooth="yes"/>
      <point x="713" y="709"/>
      <point x="832" y="557"/>
      <point x="796" y="350" type="curve" smooth="yes"/>
      <point x="760" y="143"/>
      <point x="586" y="-9"/>
      <point x="388" y="-9" type="curve" smooth="yes"/>
      <point x="190" y="-9"/>
      <point x="72" y="143"/>
    </contour>
    <contour>
      <point x="390" y="796" type="line"/>
      <point x="400" y="832"/>
      <point x="434" y="862"/>
      <point x="479" y="862" type="curve" smooth="yes"/>
      <point x="538" y="862"/>
      <point x="541" y="815"/>
      <point x="595" y="815" type="curve" smooth="yes"/>
      <point x="620" y="815"/>
      <point x="636" y="831"/>
      <point x="659" y="863" type="curve"/>
      <point x="679" y="846" type="line"/>
      <point x="656" y="809"/>
      <point x="624" y="785"/>
      <point x="587" y="785" type="curve" smooth="yes"/>
      <point x="532" y="785"/>
      <point x="520" y="832"/>
      <point x="475" y="832" type="curve" smooth="yes"/>
      <point x="434" y="832"/>
      <point x="417" y="802"/>
      <point x="413" y="781" type="curve"/>
    </contour>
  </outline>
</glyph>
<glyph name="Odieresis" format="1">
  <advance width="779"/>
  <unicode hex="00D6"/>
  <outline>
    <contour>
      <point x="148" y="350" type="curve" smooth="yes"/>
      <point x="115" y="165"/>
      <point x="218" y="29"/>
      <point x="395" y="29" type="curve" smooth="yes"/>
      <point x="572" y="29"/>
      <point x="723" y="165"/>
      <point x="756" y="350" type="curve" smooth="yes"/>
      <point x="789" y="535"/>
      <point x="685" y="671"/>
      <point x="508" y="671" type="curve" smooth="yes"/>
      <point x="331" y="671"/>
      <point x="181" y="535"/>
    </contour>
    <contour>
      <point x="108" y="350" type="curve" smooth="yes"/>
      <point x="144" y="557"/>
      <point x="317" y="709"/>
      <point x="515" y="709" type="curve" smooth="yes"/>
      <point x="713" y="709"/>
      <point x="832" y="557"/>
      <point x="796" y="350" type="curve" smooth="yes"/>
      <point x="760" y="143"/>
      <point x="586" y="-9"/>
      <point x="388" y="-9" type="curve" smooth="yes"/>
      <point x="190" y="-9"/>
      <point x="72" y="143"/>
    </contour>
    <contour>
      <point x="613" y="815" type="curve" smooth="yes"/>
      <point x="616" y="830"/>
      <point x="630" y="842"/>
      <point x="644" y="842" type="curve" smooth="yes"/>
      <point x="658" y="842"/>
      <point x="670" y="830"/>
      <point x="667" y="815" type="curve" smooth="yes"/>
      <point x="664" y="800"/>
      <point x="649" y="788"/>
      <point x="635" y="788" type="curve" smooth="yes"/>
      <point x="621" y="788"/>
      <point x="610" y="800"/>
    </contour>
    <contour>
      <point x="400" y="815" type="curve" smooth="yes"/>
      <point x="403" y="830"/>
      <point x="418" y="842"/>
      <point x="432" y="842" type="curve" smooth="yes"/>
      <point x="446" y="842"/>
      <point x="457" y="830"/>
      <point x="454" y="815" type="curve" smooth="yes"/>
      <point x="451" y="800"/>
      <point x="437" y="788"/>
      <point x="423" y="788" type="curve" smooth="yes"/>
      <point x="409" y="788"/>
      <point x="397" y="800"/>
    </contour>
  </outline>
</glyph>
<glyph name="multiply" format="1">
  <advance width="584"/>
  <unicode hex="00D7"/>
  <outline>
    <contour>
      <point x="107" y="38" type="line"/>
      <point x="86" y="62" type="line"/>
      <point x="315" y="255" type="line"/>
      <point x="154" y="448" type="line"/>
      <point x="182" y="472" type="line"/>
      <point x="341" y="277" type="line"/>
      <point x="568" y="472" type="line"/>
      <point x="589" y="448" type="line"/>
      <point x="359" y="255" type="line"/>
      <point x="520" y="62" type="line"/>
      <point x="492" y="38" type="line"/>
      <point x="333" y="232" type="line"/>
    </contour>
  </outline>
</glyph>
<glyph name="Yacute" format="1">
  <advance width="526"/>
  <unicode hex="00DD"/>
  <outline>
    <contour>
      <point x="295" y="306" type="line"/>
      <point x="333" y="306" type="line"/>
      <point x="279" y="0" type="line"/>
      <point x="241" y="0" type="line"/>
    </contour>
    <contour>
      <point x="595" y="700" type="line"/>
      <point x="638" y="700" type="line"/>
      <point x="303" y="246" type="line"/>
      <point x="134" y="700" type="line"/>
      <point x="177" y="700" type="line"/>
      <point x="316" y="315" type="line"/>
    </contour>
    <contour>
      <point x="573" y="923" type="line"/>
      <point x="370" y="769" type="line"/>
      <point x="353" y="783" type="line"/>
      <point x="544" y="943" type="line"/>
    </contour>
  </outline>
</glyph>
<glyph name="aring" format="1">
  <advance width="453"/>
  <unicode hex="00E5"/>
  <outline>
    <contour>
      <point x="96" y="135" type="curve" smooth="yes"/>
      <point x="82" y="54"/>
      <point x="134" y="22"/>
      <point x="202" y="22" type="curve" smooth="yes"/>
      <point x="288" y="22"/>
      <point x="365" y="81"/>
      <point x="380" y="167" type="curve"/>
      <point x="387" y="149" type="line"/>
      <point x="371" y="60"/>
      <point x="289" y="-10"/>
      <point x="189" y="-10" type="curve" smooth="yes"/>
      <point x="107" y="-10"/>
      <point x="42" y="34"/>
      <point x="59" y="131" type="curve" smooth="yes"/>
      <point x="77" y="232"/>
      <point x="175" y="283"/>
      <point x="273" y="283" type="curve" smooth="yes"/>
      <point x="355" y="283"/>
      <point x="390" y="248"/>
      <point x="406" y="231" type="curve"/>
      <point x="402" y="208" type="line"/>
      <point x="375" y="234"/>
      <point x="333" y="254"/>
      <point x="269" y="254" type="curve" smooth="yes"/>
      <point x="187" y="254"/>
      <point x="110" y="214"/>
    </contour>
    <contour>
      <point x="161" y="379" type="curve"/>
      <point x="147" y="407" type="line"/>
      <point x="186" y="436"/>
      <point x="244" y="470"/>
      <point x="321" y="470" type="curve" smooth="yes"/>
      <point x="416" y="470"/>
      <point x="460" y="413"/>
      <point x="444" y="324" type="curve" smooth="yes"/>
      <point x="387" y="0" type="line"/>
      <point x="351" y="0" type="line"/>
      <point x="408" y="324" type="line" smooth="yes"/>
      <point x="421" y="396"/>
      <point x="386" y="438"/>
      <point x="315" y="438" type="curve" smooth="yes"/>
      <point x="249" y="438"/>
      <point x="198" y="407"/>
    </contour>
    <contour>
      <point x="247" y="630" type="curve" smooth="yes"/>
      <point x="258" y="690"/>
      <point x="315" y="730"/>
      <point x="367" y="730" type="curve" smooth="yes"/>
      <point x="419" y="730"/>
      <point x="462" y="690"/>
      <point x="451" y="630" type="curve" smooth="yes"/>
      <point x="440" y="570"/>
      <point x="383" y="530"/>
      <point x="331" y="530" type="curve" smooth="yes"/>
      <point x="279" y="530"/>
      <point x="236" y="570"/>
    </contour>
    <contour>
      <point x="272" y="630" type="curve" smooth="yes"/>
      <point x="264" y="584"/>
      <point x="296" y="553"/>
      <point x="336" y="553" type="curve" smooth="yes"/>
      <point x="376" y="553"/>
      <point x="418" y="584"/>
      <point x="426" y="630" type="curve" smooth="yes"/>
      <point x="434" y="676"/>
      <point x="403" y="707"/>
      <point x="363" y="707" type="curve" smooth="yes"/>
      <point x="323" y="707"/>
      <point x="280" y="676"/>
    </contour>
  </outline>
</glyph>
<glyph name="ccedilla" format="1">
  <advance width="484"/>
  <unicode hex="00E7"/>
  <outline>
    <contour>
      <point x="113" y="230" type="curve" smooth="yes"/>
      <point x="92" y="110"/>
      <point x="163" y="23"/>
      <point x="275" y="23" type="curve" smooth="yes"/>
      <point x="349" y="23"/>
      <point x="417" y="61"/>
      <point x="444" y="93" type="curve"/>
      <point x="437" y="49" type="line"/>
      <point x="406" y="19"/>
      <point x="338" y="-10"/>
      <point x="269" y="-10" type="curve" smooth="yes"/>
      <point x="136" y="-10"/>
      <point x="52" y="91"/>
      <point x="77" y="230" type="curve" smooth="yes"/>
      <point x="102" y="369"/>
      <point x="221" y="470"/>
      <point x="354" y="470" type="curve" smooth="yes"/>
      <point x="423" y="470"/>
      <point x="479" y="440"/>
      <point x="500" y="411" type="curve"/>
      <point x="493" y="367" type="line"/>
      <point x="478" y="399"/>
      <point x="422" y="437"/>
      <point x="348" y="437" type="curve" smooth="yes"/>
      <point x="236" y="437"/>
      <point x="134" y="350"/>
    </contour>
    <contour>
      <point x="274" y="19" type="line"/>
      <point x="303" y="19" type="line"/>
      <point x="229" y="-71" type="line"/>
      <point x="188" y="-98" type="line"/>
    </contour>
    <contour>
      <point x="339" y="-129" type="curve"/>
      <point x="313" y="-129" type="line"/>
      <point x="320" y="-92"/>
      <point x="295" y="-75"/>
      <point x="264" y="-75" type="curve" smooth="yes"/>
      <point x="241" y="-75"/>
      <point x="214" y="-82"/>
      <point x="188" y="-98" type="curve"/>
      <point x="213" y="-76" type="line"/>
      <point x="242" y="-60"/>
      <point x="254" y="-55"/>
      <point x="280" y="-55" type="curve" smooth="yes"/>
      <point x="313" y="-55"/>
      <point x="348" y="-80"/>
    </contour>
    <contour>
      <point x="339" y="-129" type="line"/>
      <point x="328" y="-190"/>
      <point x="272" y="-223"/>
      <point x="217" y="-223" type="curve" smooth="yes"/>
      <point x="180" y="-223"/>
      <point x="156" y="-213"/>
      <point x="133" y="-185" type="curve"/>
      <point x="154" y="-167" type="line"/>
      <point x="175" y="-188"/>
      <point x="190" y="-197"/>
      <point x="221" y="-197" type="curve" smooth="yes"/>
      <point x="263" y="-197"/>
      <point x="305" y="-174"/>
      <point x="313" y="-129" type="curve"/>
    </contour>
  </outline>
</glyph>
<glyph name="ecircumflex" format="1">
  <advance width="519"/>
  <unicode hex="00EA"/>
  <outline>
    <contour>
      <point x="107" y="221" type="line"/>
      <point x="112" y="252" type="line"/>
      <point x="511" y="252" type="line"/>
      <point x="515" y="221" type="line"/>
    </contour>
    <contour>
      <point x="484" y="252" type="line" smooth="yes"/>
      <point x="503" y="359"/>
      <point x="441" y="438"/>
      <point x="341" y="438" type="curve" smooth="yes"/>
      <point x="243" y="438"/>
      <point x="143" y="365"/>
      <point x="121" y="242" type="curve"/>
      <point x="118" y="231" type="line"/>
      <point x="96" y="109"/>
      <point x="156" y="23"/>
      <point x="265" y="23" type="curve" smooth="yes"/>
      <point x="364" y="23"/>
      <point x="424" y="76"/>
      <point x="464" y="126" type="curve"/>
      <point x="489" y="107" type="line"/>
      <point x="443" y="51"/>
      <point x="379" y="-10"/>
      <point x="256" y="-10" type="curve" smooth="yes"/>
      <point x="131" y="-10"/>
      <point x="57" y="92"/>
      <point x="82" y="231" type="curve" smooth="yes"/>
      <point x="86" y="254"/>
      <point x="92" y="277"/>
      <point x="102" y="298" type="curve" smooth="yes"/>
      <point x="144" y="400"/>
      <point x="238" y="470"/>
      <point x="347" y="470" type="curve" smooth="yes"/>
      <point x="464" y="470"/>
      <point x="545" y="379"/>
      <point x="522" y="247" type="curve" smooth="yes"/>
      <point x="521" y="239"/>
      <point x="517" y="229"/>
      <point x="515" y="221" type="curve"/>
      <point x="481" y="230" type="line"/>
    </contour>
    <contour>
      <point x="381" y="663" type="line"/>
      <point x="223" y="543" type="line"/>
      <point x="203" y="562" type="line"/>
      <point x="388" y="702" type="line"/>
      <point x="523" y="562" type="line"/>
      <point x="498" y="543" type="line"/>
    </contour>
  </outline>
</glyph>
<glyph name="igrave" format="1">
  <advance width="215"/>
  <unicode hex="00EC"/>
  <outline>
    <contour>
      <point x="171" y="460" type="line"/>
      <point x="206" y="460" type="line"/>
      <point x="125" y="0" type="line"/>
      <point x="90" y="0" type="line"/>
    </contour>
    <contour>
      <point x="73" y="692" type="line"/>
      <point x="108" y="711" type="line"/>
      <point x="243" y="551" type="line"/>
      <point x="221" y="537" type="line"/>
    </contour>
  </outline>
</glyph>
<glyph name="eth" format="1">
  <advance width="550"/>
  <unicode hex="00F0"/>
  <outline>
    <contour>
      <point x="504" y="224" type="curve" smooth="yes"/>
      <point x="522" y="326"/>
      <point x="463" y="416"/>
      <point x="341" y="416" type="curve" smooth="yes"/>
      <point x="242" y="416"/>
      <point x="144" y="333"/>
      <point x="125" y="224" type="curve" smooth="yes"/>
      <point x="105" y="109"/>
      <point x="167" y="24"/>
      <point x="279" y="24" type="curve" smooth="yes"/>
      <point x="395" y="24"/>
      <point x="484" y="113"/>
    </contour>
    <contour>
      <point x="343" y="700" type="line"/>
      <point x="516" y="378" type="line" smooth="yes"/>
      <point x="536" y="341"/>
      <point x="549" y="281"/>
      <point x="539" y="224" type="curve" smooth="yes"/>
      <point x="515" y="86"/>
      <point x="408" y="-10"/>
      <point x="273" y="-10" type="curve" smooth="yes"/>
      <point x="138" y="-10"/>
      <point x="65" y="86"/>
      <point x="89" y="224" type="curve" smooth="yes"/>
      <point x="111" y="347"/>
      <point x="221" y="444"/>
      <point x="335" y="444" type="curve" smooth="yes"/>
      <point x="399" y="444"/>
      <point x="447" y="422"/>
      <point x="476" y="377" type="curve"/>
      <point x="474" y="375" type="line"/>
      <point x="297" y="700" type="line"/>
    </contour>
    <contour>
      <point x="247" y="555" type="line"/>
      <point x="252" y="585" type="line"/>
      <point x="532" y="585" type="line"/>
      <point x="527" y="555" type="line"/>
    </contour>
  </outline>
</glyph>
<glyph name="divide" format="1">
  <advance width="623"/>
  <unicode hex="00F7"/>
  <outline>
    <contour>
      <point x="362" y="450" type="curve" smooth="yes"/>
      <point x="365" y="465"/>
      <point x="380" y="478"/>
      <point x="394" y="478" type="curve" smooth="yes"/>
      <point x="408" y="478"/>
      <point x="419" y="465"/>
      <point x="416" y="450" type="curve" smooth="yes"/>
      <point x="413" y="435"/>
      <point x="399" y="424"/>
      <point x="385" y="424" type="curve" smooth="yes"/>
      <point x="371" y="424"/>
      <point x="359" y="435"/>
    </contour>
    <contour>
      <point x="291" y="45" type="curve" smooth="yes"/>
      <point x="294" y="60"/>
      <point x="309" y="72"/>
      <point x="323" y="72" type="curve" smooth="yes"/>
      <point x="337" y="72"/>
      <point x="348" y="60"/>
      <point x="345" y="45" type="curve" smooth="yes"/>
      <point x="342" y="30"/>
      <point x="327" y="18"/>
      <point x="313" y="18" type="curve" smooth="yes"/>
      <point x="299" y="18"/>
      <point x="288" y="30"/>
    </contour>
    <contour>
      <point x="101" y="231" type="line"/>
      <point x="107" y="267" type="line"/>
      <point x="607" y="267" type="line"/>
      <point x="601" y="231" type="line"/>
    </contour>
  </outline>
</glyph>
<glyph name="Abreve" format="1">
  <advance width="621"/>
  <unicode hex="0102"/>
  <outline>
    <contour>
      <point x="178" y="250" type="line"/>
      <point x="195" y="285" type="line"/>
      <point x="527" y="285" type="line"/>
      <point x="532" y="250" type="line"/>
    </contour>
    <contour>
      <point x="423" y="635" type="line"/>
      <point x="212" y="272" type="line"/>
      <point x="206" y="263" type="line"/>
      <point x="53" y="0" type="line"/>
      <point x="11" y="0" type="line"/>
      <point x="438" y="722" type="line"/>
      <point x="610" y="0" type="line"/>
      <point x="568" y="0" type="line"/>
      <point x="509" y="261" type="line"/>
      <point x="508" y="270" type="line"/>
    </contour>
    <contour>
      <point x="317" y="929" type="curve"/>
      <point x="349" y="929" type="line"/>
      <point x="340" y="877"/>
      <point x="371" y="818"/>
      <point x="455" y="818" type="curve" smooth="yes"/>
      <point x="539" y="818"/>
      <point x="592" y="877"/>
      <point x="601" y="929" type="curve"/>
      <point x="633" y="929" type="line"/>
      <point x="621" y="860"/>
      <point x="555" y="789"/>
      <point x="450" y="789" type="curve" smooth="yes"/>
      <point x="345" y="789"/>
      <point x="305" y="860"/>
    </contour>
  </outline>
</glyph>
<glyph name="Aogonek" format="1">
  <advance width="621"/>
  <unicode hex="0104"/>
  <outline>
    <contour>
      <point x="178" y="250" type="line"/>
      <point x="195" y="285" type="line"/>
      <point x="527" y="285" type="line"/>
      <point x="532" y="250" type="line"/>
    </contour>
    <contour>
      <point x="423" y="635" type="line"/>
      <point x="212" y="272" type="line"/>
      <point x="206" y="263" type="line"/>
      <point x="53" y="0" type="line"/>
      <point x="11" y="0" type="line"/>
      <point x="438" y="722" type="line"/>
      <point x="610" y="0" type="line"/>
      <point x="568" y="0" type="line"/>
      <point x="509" y="261" type="line"/>
      <point x="508" y="270" type="line"/>
    </contour>
    <contour>
      <point x="602" y="-157" type="curve"/>
      <point x="614" y="-180" type="line"/>
      <point x="595" y="-200"/>
      <point x="556" y="-220"/>
      <point x="513" y="-220" type="curve" smooth="yes"/>
      <point x="442" y="-220"/>
      <point x="410" y="-186"/>
      <point x="419" y="-133" type="curve"/>
      <point x="455" y="-126" type="line"/>
      <point x="448" y="-168"/>
      <point x="478" y="-188"/>
      <point x="521" y="-188" type="curve" smooth="yes"/>
      <point x="556" y="-188"/>
      <point x="585" y="-173"/>
    </contour>
    <contour>
      <point x="455" y="-126" type="curve"/>
      <point x="419" y="-133" type="line"/>
      <point x="430" y="-68"/>
      <point x="515" y="-21"/>
      <point x="591" y="15" type="curve"/>
      <point x="607" y="0" type="line"/>
      <point x="540" y="-28"/>
      <point x="464" y="-76"/>
    </contour>
  </outline>
</glyph>
<glyph name="cacute" format="1">
  <advance width="484"/>
  <unicode hex="0107"/>
  <outline>
    <contour>
      <point x="113" y="230" type="curve" smooth="yes"/>
      <point x="92" y="110"/>
      <point x="163" y="23"/>
      <point x="275" y="23" type="curve" smooth="yes"/>
      <point x="349" y="23"/>
      <point x="417" y="61"/>
      <point x="444" y="93" type="curve"/>
      <point x="437" y="49" type="line"/>
      <point x="406" y="19"/>
      <point x="338" y="-10"/>
      <point x="269" y="-10" type="curve" smooth="yes"/>
      <point x="136" y="-10"/>
      <point x="52" y="91"/>
      <point x="77" y="230" type="curve" smooth="yes"/>
      <point x="102" y="369"/>
      <point x="221" y="470"/>
      <point x="354" y="470" type="curve" smooth="yes"/>
      <point x="423" y="470"/>
      <point x="479" y="440"/>
      <point x="500" y="411" type="curve"/>
      <point x="493" y="367" type="line"/>
      <point x="478" y="399"/>
      <point x="422" y="437"/>
      <point x="348" y="437" type="curve" smooth="yes"/>
      <point x="236" y="437"/>
      <point x="134" y="350"/>
    </contour>
    <contour>
      <point x="533" y="691" type="line"/>
      <point x="331" y="536" type="line"/>
      <point x="313" y="550" type="line"/>
      <point x="504" y="710" type="line"/>
    </contour>
  </outline>
</glyph>
<glyph name="ccircumflex" format="1">
  <advance width="484"/>
  <unicode hex="0109"/>
  <outline>
    <contour>
      <point x="113" y="230" type="curve" smooth="yes"/>
      <point x="92" y="110"/>
      <point x="163" y="23"/>
      <point x="275" y="23" type="curve" smooth="yes"/>
      <point x="349" y="23"/>
      <point x="417" y="61"/>
      <point x="444" y="93" type="curve"/>
      <point x="437" y="49" type="line"/>
      <point x="406" y="19"/>
      <point x="338" y="-10"/>
      <point x="269" y="-10" type="curve" smooth="yes"/>
      <point x="136" y="-10"/>
      <point x="52" y="91"/>
      <point x="77" y="230" type="curve" smooth="yes"/>
      <point x="102" y="369"/>
      <point x="221" y="470"/>
      <point x="354" y="470" type="curve" smooth="yes"/>
      <point x="423" y="470"/>
      <point x="479" y="440"/>
      <point x="500" y="411" type="curve"/>
      <point x="493" y="367" type="line"/>
      <point x="478" y="399"/>
      <point x="422" y="437"/>
      <point x="348" y="437" type="curve" smooth="yes"/>
      <point x="236" y="437"/>
      <point x="134" y="350"/>
    </contour>
    <contour>
      <point x="386" y="651" type="line"/>
      <point x="227" y="530" type="line"/>
      <point x="208" y="549" type="line"/>
      <point x="392" y="689" type="line"/>
      <point x="528" y="549" type="line"/>
      <point x="502" y="530" type="line"/>
    </contour>
  </outline>
</glyph>
<glyph name="Cdotaccent" format="1">
  <advance width="685"/>
  <unicode hex="010A"/>
  <outline>
    <contour>
      <point x="149" y="350" type="curve" smooth="yes"/>
      <point x="116" y="163"/>
      <point x="219" y="30"/>
      <point x="389" y="30" type="curve" smooth="yes"/>
      <point x="488" y="30"/>
      <point x="565" y="62"/>
      <point x="630" y="121" type="curve"/>
      <point x="621" y="70" type="line"/>
      <point x="553" y="18"/>
      <point x="484" y="-9"/>
      <point x="382" y="-9" type="curve" smooth="yes"/>
      <point x="188" y="-9"/>
      <point x="71" y="141"/>
      <point x="108" y="350" type="curve" smooth="yes"/>
      <point x="145" y="559"/>
      <point x="315" y="709"/>
      <point x="509" y="709" type="curve" smooth="yes"/>
      <point x="611" y="709"/>
      <point x="670" y="682"/>
      <point x="720" y="630" type="curve"/>
      <point x="711" y="580" type="line"/>
      <point x="667" y="638"/>
      <point x="598" y="670"/>
      <point x="502" y="670" type="curve" smooth="yes"/>
      <point x="333" y="670"/>
      <point x="182" y="539"/>
    </contour>
    <contour>
      <point x="498" y="802" type="curve" smooth="yes"/>
      <point x="501" y="817"/>
      <point x="516" y="829"/>
      <point x="530" y="829" type="curve" smooth="yes"/>
      <point x="544" y="829"/>
      <point x="554" y="817"/>
      <point x="551" y="802" type="curve" smooth="yes"/>
      <point x="548" y="787"/>
      <point x="535" y="775"/>
      <point x="521" y="775" type="curve" smooth="yes"/>
      <point x="507" y="775"/>
      <point x="495" y="787"/>
    </contour>
  </outline>
</glyph>
<glyph name="Ccaron" format="1">
  <advance width="685"/>
  <unicode hex="010C"/>
  <outline>
    <contour>
      <point x="149" y="350" type="curve" smooth="yes"/>
      <point x="116" y="163"/>
      <point x="219" y="30"/>
      <point x="389" y="30" type="curve" smooth="yes"/>
      <point x="488" y="30"/>
      <point x="565" y="62"/>
      <point x="630" y="121" type="curve"/>
      <point x="621" y="70" type="line"/>
      <point x="553" y="18"/>
      <point x="484" y="-9"/>
      <point x="382" y="-9" type="curve" smooth="yes"/>
      <point x="188" y="-9"/>
      <point x="71" y="141"/>
      <point x="108" y="350" type="curve" smooth="yes"/>
      <point x="145" y="559"/>
      <point x="315" y="709"/>
      <point x="509" y="709" type="curve" smooth="yes"/>
      <point x="611" y="709"/>
      <point x="670" y="682"/>
      <point x="720" y="630" type="curve"/>
      <point x="711" y="580" type="line"/>
      <point x="667" y="638"/>
      <point x="598" y="670"/>
      <point x="502" y="670" type="curve" smooth="yes"/>
      <point x="333" y="670"/>
      <point x="182" y="539"/>
    </contour>
    <contour>
      <point x="527" y="813" type="line"/>
      <point x="686" y="934" type="line"/>
      <point x="705" y="915" type="line"/>
      <point x="521" y="775" type="line"/>
      <point x="385" y="915" type="line"/>
      <point x="412" y="934" type="line"/>
    </contour>
  </outline>
</glyph>
<glyph name="Dcaron" format="1">
  <advance width="651"/>
  <unicode hex="010E"/>
  <outline>
    <contour>
      <point x="223" y="663" type="line"/>
      <point x="229" y="700" type="line"/>
      <point x="387" y="700" type="line" smooth="yes"/>
      <point x="591" y="700"/>
      <point x="704" y="559"/>
      <point x="667" y="350" type="curve"/>
      <point x="629" y="350" type="line"/>
      <point x="662" y="539"/>
      <point x="566" y="663"/>
      <point x="381" y="663" type="curve" smooth="yes"/>
    </contour>
    <contour>
      <point x="264" y="0" type="curve" smooth="yes"/>
      <point x="106" y="0" type="line"/>
      <point x="113" y="37" type="line"/>
      <point x="271" y="37" type="line" smooth="yes"/>
      <point x="456" y="37"/>
      <point x="596" y="161"/>
      <point x="629" y="350" type="curve"/>
      <point x="667" y="350" type="line"/>
      <point x="630" y="141"/>
      <point x="468" y="0"/>
    </contour>
    <contour>
      <point x="209" y="700" type="line"/>
      <point x="247" y="700" type="line"/>
      <point x="124" y="0" type="line"/>
      <point x="86" y="0" type="line"/>
    </contour>
    <contour>
      <point x="410" y="813" type="line"/>
      <point x="569" y="934" type="line"/>
      <point x="588" y="915" type="line"/>
      <point x="404" y="775" type="line"/>
      <point x="268" y="915" type="line"/>
      <point x="295" y="934" type="line"/>
    </contour>
  </outline>
</glyph>
<glyph name="Ebreve" format="1">
  <advance width="524"/>
  <unicode hex="0114"/>
  <outline>
    <contour>
      <point x="105" y="0" type="line"/>
      <point x="111" y="35" type="line"/>
      <point x="454" y="35" type="line"/>
      <point x="448" y="0" type="line"/>
    </contour>
    <contour>
      <point x="222" y="665" type="line"/>
      <point x="228" y="700" type="line"/>
      <point x="571" y="700" type="line"/>
      <point x="565" y="665" type="line"/>
    </contour>
    <contour>
      <point x="170" y="368" type="line"/>
      <point x="176" y="404" type="line"/>
      <point x="499" y="404" type="line"/>
      <point x="493" y="368" type="line"/>
    </contour>
    <contour>
      <point x="209" y="700" type="line"/>
      <point x="247" y="700" type="line"/>
      <point x="124" y="0" type="line"/>
      <point x="86" y="0" type="line"/>
    </contour>
    <contour>
      <point x="276" y="909" type="curve"/>
      <point x="308" y="909" type="line"/>
      <point x="299" y="857"/>
      <point x="331" y="798"/>
      <point x="415" y="798" type="curve" smooth="yes"/>
      <point x="499" y="798"/>
      <point x="550" y="857"/>
      <point x="559" y="909" type="curve"/>
      <point x="592" y="909" type="line"/>
      <point x="580" y="840"/>
      <point x="515" y="769"/>
      <point x="410" y="769" type="curve" smooth="yes"/>
      <point x="305" y="769"/>
      <point x="264" y="840"/>
    </contour>
  </outline>
</glyph>
<glyph name="Eogonek" format="1">
  <advance width="524"/>
  <unicode hex="0118"/>
  <outline>
    <contour>
      <point x="105" y="0" type="line"/>
      <point x="111" y="35" type="line"/>
      <point x="454" y="35" type="line"/>
      <point x="448" y="0" type="line"/>
    </contour>
    <contour>
      <point x="222" y="665" type="line"/>
      <point x="228" y="700" type="line"/>
      <point x="571" y="700" type="line"/>
      <point x="565" y="665" type="line"/>
    </contour>
    <contour>
      <point x="170" y="368" type="line"/>
      <point x="176" y="404" type="line"/>
      <point x="499" y="404" type="line"/>
      <point x="493" y="368" type="line"/>
    </contour>
    <contour>
      <point x="209" y="700" type="line"/>
      <point x="247" y="700" type="line"/>
      <point x="124" y="0" type="line"/>
      <point x="86" y="0" type="line"/>
    </contour>
    <contour>
      <point x="441" y="-158" type="curve"/>
      <point x="453" y="-181" type="line"/>
      <point x="434" y="-201"/>
      <point x="395" y="-221"/>
      <point x="352" y="-221" type="curve" smooth="yes"/>
      <point x="281" y="-221"/>
      <point x="249" y="-186"/>
      <point x="258" y="-133" type="curve"/>
      <point x="294" y="-126" type="line"/>
      <point x="287" y="-168"/>
      <point x="317" y="-189"/>
      <point x="360" y="-189" type="curve" smooth="yes"/>
      <point x="395" y="-189"/>
      <point x="424" y="-174"/>
    </contour>
    <contour>
      <point x="294" y="-126" type="curve"/>
      <point x="258" y="-133" type="line"/>
      <point x="269" y="-68"/>
      <point x="353" y="-21"/>
      <point x="429" y="15" type="curve"/>
      <point x="446" y="-1" type="line"/>
      <point x="379" y="-29"/>
      <point x="303" y="-76"/>
    </contour>
  </outline>
</glyph>
<glyph name="eogonek" format="1">
  <advance width="519"/>
  <unicode hex="0119"/>
  <outline>
    <contour>
      <point x="107" y="221" type="line"/>
      <point x="112" y="252" type="line"/>
      <point x="511" y="252" type="line"/>
      <point x="515" y="221" type="line"/>
    </contour>
    <contour>
      <point x="484" y="252" type="line" smooth="yes"/>
      <point x="503" y="359"/>
      <point x="441" y="438"/>
      <point x="341" y="438" type="curve" smooth="yes"/>
      <point x="243" y="438"/>
      <point x="143" y="365"/>
      <point x="121" y="242" type="curve"/>
      <point x="118" y="231" type="line"/>
      <point x="96" y="109"/>
      <point x="156" y="23"/>
      <point x="265" y="23" type="curve" smooth="yes"/>
      <point x="364" y="23"/>
      <point x="424" y="76"/>
      <point x="464" y="126" type="curve"/>
      <point x="489" y="107" type="line"/>
      <point x="443" y="51"/>
      <point x="379" y="-10"/>
      <point x="256" y="-10" type="curve" smooth="yes"/>
      <point x="131" y="-10"/>
      <point x="57" y="92"/>
      <point x="82" y="231" type="curve" smooth="yes"/>
      <point x="86" y="254"/>
      <point x="92" y="277"/>
      <point x="102" y="298" type="curve" smooth="yes"/>
      <point x="144" y="400"/>
      <point x="238" y="470"/>
      <point x="347" y="470" type="curve" smooth="yes"/>
      <point x="464" y="470"/>
      <point x="545" y="379"/>
      <point x="522" y="247" type="curve" smooth="yes"/>
      <point x="521" y="239"/>
      <point x="517" y="229"/>
      <point x="515" y="221" type="curve"/>
      <point x="481" y="230" type="line"/>
    </contour>
    <contour>
      <point x="270" y="-165" type="curve"/>
      <point x="281" y="-187" type="line"/>
      <point x="262" y="-207"/>
      <point x="223" y="-227"/>
      <point x="180" y="-227" type="curve" smooth="yes"/>
      <point x="109" y="-227"/>
      <point x="76" y="-192"/>
      <point x="85" y="-139" type="curve"/>
      <point x="122" y="-132" type="line"/>
      <point x="115" y="-174"/>
      <point x="145" y="-195"/>
      <point x="188" y="-195" type="curve" smooth="yes"/>
      <point x="223" y="-195"/>
      <point x="253" y="-181"/>
    </contour>
    <contour>
      <point x="122" y="-132" type="curve"/>
      <point x="85" y="-139" type="line"/>
      <point x="96" y="-74"/>
      <point x="180" y="-28"/>
      <point x="256" y="8" type="curve"/>
      <point x="274" y="-8" type="line"/>
      <point x="207" y="-36"/>
      <point x="131" y="-82"/>
    </contour>
  </outline>
</glyph>
<glyph name="Gbreve" format="1">
  <advance width="768"/>
  <unicode hex="011E"/>
  <outline>
    <contour>
      <point x="470" y="310" type="line"/>
      <point x="476" y="345" type="line"/>
      <point x="778" y="345" type="line"/>
      <point x="746" y="310" type="line"/>
    </contour>
    <contour>
      <point x="778" y="345" type="line"/>
      <point x="745" y="157"/>
      <point x="591" y="-9"/>
      <point x="390" y="-9" type="curve" smooth="yes"/>
      <point x="192" y="-9"/>
      <point x="71" y="141"/>
      <point x="108" y="350" type="curve" smooth="yes"/>
      <point x="145" y="559"/>
      <point x="319" y="709"/>
      <point x="517" y="709" type="curve" smooth="yes"/>
      <point x="646" y="709"/>
      <point x="729" y="649"/>
      <point x="773" y="558" type="curve"/>
      <point x="741" y="534" type="line"/>
      <point x="707" y="614"/>
      <point x="627" y="671"/>
      <point x="510" y="671" type="curve" smooth="yes"/>
      <point x="335" y="671"/>
      <point x="181" y="539"/>
      <point x="148" y="350" type="curve" smooth="yes"/>
      <point x="115" y="163"/>
      <point x="221" y="29"/>
      <point x="397" y="29" type="curve" smooth="yes"/>
      <point x="578" y="29"/>
      <point x="711" y="178"/>
      <point x="740" y="342" type="curve"/>
    </contour>
    <contour>
      <point x="396" y="921" type="curve"/>
      <point x="428" y="921" type="line"/>
      <point x="419" y="869"/>
      <point x="451" y="811"/>
      <point x="535" y="811" type="curve" smooth="yes"/>
      <point x="619" y="811"/>
      <point x="671" y="869"/>
      <point x="680" y="921" type="curve"/>
      <point x="712" y="921" type="line"/>
      <point x="700" y="852"/>
      <point x="635" y="781"/>
      <point x="530" y="781" type="curve" smooth="yes"/>
      <point x="425" y="781"/>
      <point x="384" y="852"/>
    </contour>
  </outline>
</glyph>
<glyph name="gdotaccent" format="1">
  <advance width="551"/>
  <unicode hex="0121"/>
  <outline>
    <contour>
      <point x="497" y="230" type="curve"/>
      <point x="481" y="230" type="line"/>
      <point x="502" y="349"/>
      <point x="430" y="437"/>
      <point x="347" y="437" type="curve" smooth="yes"/>
      <point x="233" y="437"/>
      <point x="140" y="355"/>
      <point x="118" y="230" type="curve"/>
      <point x="82" y="230" type="line"/>
      <point x="108" y="379"/>
      <point x="221" y="470"/>
      <point x="346" y="470" type="curve" smooth="yes"/>
      <point x="448" y="470"/>
      <point x="523" y="379"/>
    </contour>
    <contour>
      <point x="481" y="230" type="curve"/>
      <point x="497" y="230" type="line"/>
      <point x="471" y="81"/>
      <point x="363" y="-10"/>
      <point x="261" y="-10" type="curve" smooth="yes"/>
      <point x="136" y="-10"/>
      <point x="56" y="81"/>
      <point x="82" y="230" type="curve"/>
      <point x="118" y="230" type="line"/>
      <point x="96" y="105"/>
      <point x="160" y="23"/>
      <point x="274" y="23" type="curve" smooth="yes"/>
      <point x="357" y="23"/>
      <point x="460" y="111"/>
    </contour>
    <contour>
      <point x="49" y="-30" type="curve"/>
      <point x="85" y="-30" type="line"/>
      <point x="68" y="-128"/>
      <point x="123" y="-197"/>
      <point x="224" y="-197" type="curve" smooth="yes"/>
      <point x="318" y="-197"/>
      <point x="417" y="-131"/>
      <point x="442" y="10" type="curve" smooth="yes"/>
      <point x="521" y="460" type="line"/>
      <point x="556" y="460" type="line"/>
      <point x="477" y="10" type="line" smooth="yes"/>
      <point x="449" y="-149"/>
      <point x="333" y="-230"/>
      <point x="218" y="-230" type="curve" smooth="yes"/>
      <point x="96" y="-230"/>
      <point x="28" y="-149"/>
    </contour>
    <contour>
      <point x="331" y="557" type="curve" smooth="yes"/>
      <point x="334" y="572"/>
      <point x="349" y="584"/>
      <point x="363" y="584" type="curve" smooth="yes"/>
      <point x="377" y="584"/>
      <point x="387" y="572"/>
      <point x="384" y="557" type="curve" smooth="yes"/>
      <point x="381" y="542"/>
      <point x="367" y="530"/>
      <point x="353" y="530" type="curve" smooth="yes"/>
      <point x="339" y="530"/>
      <point x="328" y="542"/>
    </contour>
  </outline>
</glyph>
<glyph name="imacron" format="1">
  <advance width="215"/>
  <unicode hex="012B"/>
  <outline>
    <contour>
      <point x="171" y="460" type="line"/>
      <point x="206" y="460" type="line"/>
      <point x="125" y="0" type="line"/>
      <point x="90" y="0" type="line"/>
    </contour>
    <contour>
      <point x="56" y="572" type="line"/>
      <point x="62" y="605" type="line"/>
      <point x="412" y="605" type="line"/>
      <point x="406" y="572" type="line"/>
    </contour>
  </outline>
</glyph>
<glyph name="Ibreve" format="1">
  <advance width="203"/>
  <unicode hex="012C"/>
  <outline>
    <contour>
      <point x="206" y="700" type="line"/>
      <point x="243" y="700" type="line"/>
      <point x="120" y="0" type="line"/>
      <point x="83" y="0" type="line"/>
    </contour>
    <contour>
      <point x="103" y="910" type="curve"/>
      <point x="135" y="910" type="line"/>
      <point x="126" y="858"/>
      <point x="158" y="800"/>
      <point x="242" y="800" type="curve" smooth="yes"/>
      <point x="326" y="800"/>
      <point x="377" y="858"/>
      <point x="386" y="910" type="curve"/>
      <point x="419" y="910" type="line"/>
      <point x="407" y="841"/>
      <point x="342" y="770"/>
      <point x="237" y="770" type="curve" smooth="yes"/>
      <point x="132" y="770"/>
      <point x="91" y="841"/>
    </contour>
  </outline>
</glyph>
<glyph name="iogonek" format="1">
  <advance width="215"/>
  <unicode hex="012F"/>
  <outline>
    <contour>
      <point x="201" y="679" type="curve" smooth="yes"/>
      <point x="203" y="693"/>
      <point x="217" y="705"/>
      <point x="232" y="705" type="curve" smooth="yes"/>
      <point x="247" y="705"/>
      <point x="256" y="693"/>
      <point x="254" y="679" type="curve" smooth="yes"/>
      <point x="252" y="665"/>
      <point x="238" y="653"/>
      <point x="223" y="653" type="curve" smooth="yes"/>
      <point x="208" y="653"/>
      <point x="199" y="665"/>
    </contour>
    <contour>
      <point x="171" y="460" type="line"/>
      <point x="206" y="460" type="line"/>
      <point x="125" y="0" type="line"/>
      <point x="90" y="0" type="line"/>
    </contour>
    <contour>
      <point x="120" y="-163" type="curve"/>
      <point x="133" y="-186" type="line"/>
      <point x="114" y="-206"/>
      <point x="74" y="-226"/>
      <point x="31" y="-226" type="curve" smooth="yes"/>
      <point x="-40" y="-226"/>
      <point x="-73" y="-192"/>
      <point x="-64" y="-139" type="curve"/>
      <point x="-27" y="-132" type="line"/>
      <point x="-34" y="-174"/>
      <point x="-4" y="-194"/>
      <point x="39" y="-194" type="curve" smooth="yes"/>
      <point x="74" y="-194"/>
      <point x="103" y="-179"/>
    </contour>
    <contour>
      <point x="-27" y="-132" type="curve"/>
      <point x="-64" y="-139" type="line"/>
      <point x="-53" y="-74"/>
      <point x="32" y="-27"/>
      <point x="108" y="9" type="curve"/>
      <point x="125" y="-6" type="line"/>
      <point x="58" y="-34"/>
      <point x="-18" y="-82"/>
    </contour>
  </outline>
</glyph>
<glyph name="ij" format="1">
  <advance width="510"/>
  <unicode hex="0133"/>
  <outline>
    <contour>
      <point x="451" y="679" type="curve" smooth="yes"/>
      <point x="453" y="693"/>
      <point x="467" y="705"/>
      <point x="482" y="705" type="curve" smooth="yes"/>
      <point x="497" y="705"/>
      <point x="506" y="693"/>
      <point x="504" y="679" type="curve" smooth="yes"/>
      <point x="502" y="665"/>
      <point x="488" y="653"/>
      <point x="473" y="653" type="curve" smooth="yes"/>
      <point x="458" y="653"/>
      <point x="449" y="665"/>
    </contour>
    <contour>
      <point x="166" y="-146" type="line"/>
      <point x="177" y="-167"/>
      <point x="198" y="-185"/>
      <point x="227" y="-185" type="curve" smooth="yes"/>
      <point x="289" y="-185"/>
      <point x="316" y="-131"/>
      <point x="327" y="-71" type="curve" smooth="yes"/>
      <point x="421" y="460" type="line"/>
      <point x="456" y="460" type="line"/>
      <point x="362" y="-74" type="line" smooth="yes"/>
      <point x="347" y="-157"/>
      <point x="303" y="-220"/>
      <point x="219" y="-220" type="curve" smooth="yes"/>
      <point x="176" y="-220"/>
      <point x="152" y="-195"/>
      <point x="141" y="-175" type="curve"/>
    </contour>
    <contour>
      <point x="201" y="679" type="curve" smooth="yes"/>
      <point x="203" y="693"/>
      <point x="217" y="705"/>
      <point x="232" y="705" type="curve" smooth="yes"/>
      <point x="247" y="705"/>
      <point x="256" y="693"/>
      <point x="254" y="679" type="curve" smooth="yes"/>
      <point x="252" y="665"/>
      <point x="238" y="653"/>
      <point x="223" y="653" type="curve" smooth="yes"/>
      <point x="208" y="653"/>
      <point x="199" y="665"/>
    </contour>
    <contour>
      <point x="171" y="460" type="line"/>
      <point x="206" y="460" type="line"/>
      <point x="125" y="0" type="line"/>
      <point x="90" y="0" type="line"/>
    </contour>
  </outline>
</glyph>
<glyph name="Jcircumflex" format="1">
  <advance width="212"/>
  <unicode hex="0134"/>
  <outline>
    <contour>
      <point x="-130" y="-139" type="line"/>
      <point x="-114" y="-162"/>
      <point x="-81" y="-184"/>
      <point x="-39" y="-184" type="curve" smooth="yes"/>
      <point x="29" y="-184"/>
      <point x="64" y="-148"/>
      <point x="81" y="-50" type="curve" smooth="yes"/>
      <point x="213" y="700" type="line"/>
      <point x="249" y="700" type="line"/>
      <point x="115" y="-60" type="line" smooth="yes"/>
      <point x="96" y="-169"/>
      <point x="47" y="-220"/>
      <point x="-47" y="-220" type="curve" smooth="yes"/>
      <point x="-100" y="-220"/>
      <point x="-144" y="-187"/>
      <point x="-155" y="-167" type="curve"/>
    </contour>
    <contour>
      <point x="281" y="912" type="line"/>
      <point x="122" y="791" type="line"/>
      <point x="103" y="810" type="line"/>
      <point x="288" y="950" type="line"/>
      <point x="423" y="810" type="line"/>
      <point x="396" y="791" type="line"/>
    </contour>
  </outline>
</glyph>
<glyph name="uni0137" format="1">
  <advance width="396"/>
  <unicode hex="0137"/>
  <outline>
    <contour>
      <point x="214" y="780" type="line"/>
      <point x="250" y="780" type="line"/>
      <point x="112" y="0" type="line"/>
      <point x="76" y="0" type="line"/>
    </contour>
    <contour>
      <point x="406" y="460" type="line"/>
      <point x="453" y="460" type="line"/>
      <point x="193" y="270" type="line"/>
      <point x="390" y="0" type="line"/>
      <point x="345" y="0" type="line"/>
      <point x="147" y="270" type="line"/>
    </contour>
    <contour>
      <point x="264" y="-70" type="line"/>
      <point x="297" y="-84" type="line"/>
      <point x="143" y="-334" type="line"/>
      <point x="120" y="-325" type="line"/>
    </contour>
  </outline>
</glyph>
<glyph name="lacute" format="1">
  <advance width="198"/>
  <unicode hex="013A"/>
  <outline>
    <contour>
      <point x="219" y="780" type="line"/>
      <point x="255" y="780" type="line"/>
      <point x="117" y="0" type="line"/>
      <point x="81" y="0" type="line"/>
    </contour>
    <contour>
      <point x="433" y="995" type="line"/>
      <point x="230" y="840" type="line"/>
      <point x="214" y="854" type="line"/>
      <point x="405" y="1014" type="line"/>
    </contour>
  </outline>
</glyph>
<glyph name="uni013B" format="1">
  <advance width="437"/>
  <unicode hex="013B"/>
  <outline>
    <contour>
      <point x="108" y="0" type="line"/>
      <point x="114" y="35" type="line"/>
      <point x="427" y="35" type="line"/>
      <point x="421" y="0" type="line"/>
    </contour>
    <contour>
      <point x="209" y="700" type="line"/>
      <point x="246" y="700" type="line"/>
      <point x="123" y="0" type="line"/>
      <point x="86" y="0" type="line"/>
    </contour>
    <contour>
      <point x="261" y="-60" type="line"/>
      <point x="295" y="-74" type="line"/>
      <point x="141" y="-324" type="line"/>
      <point x="117" y="-315" type="line"/>
    </contour>
  </outline>
</glyph>
<glyph name="Lcaron" format="1">
  <advance width="450"/>
  <unicode hex="013D"/>
  <outline>
    <contour>
      <point x="108" y="0" type="line"/>
      <point x="114" y="35" type="line"/>
      <point x="427" y="35" type="line"/>
      <point x="421" y="0" type="line"/>
    </contour>
    <contour>
      <point x="209" y="700" type="line"/>
      <point x="246" y="700" type="line"/>
      <point x="123" y="0" type="line"/>
      <point x="86" y="0" type="line"/>
    </contour>
    <contour>
      <point x="458" y="700" type="line"/>
      <point x="492" y="686" type="line"/>
      <point x="338" y="436" type="line"/>
      <point x="314" y="445" type="line"/>
    </contour>
  </outline>
</glyph>
<glyph name="lcaron" format="1">
  <advance width="230"/>
  <unicode hex="013E"/>
  <outline>
    <contour>
      <point x="219" y="780" type="line"/>
      <point x="255" y="780" type="line"/>
      <point x="117" y="0" type="line"/>
      <point x="81" y="0" type="line"/>
    </contour>
    <contour>
      <point x="446" y="770" type="line"/>
      <point x="479" y="756" type="line"/>
      <point x="325" y="506" type="line"/>
      <point x="302" y="515" type="line"/>
    </contour>
  </outline>
</glyph>
<glyph name="Lslash" format="1">
  <advance width="402"/>
  <unicode hex="0141"/>
  <outline>
    <contour>
      <point x="61" y="370" type="line"/>
      <point x="55" y="395" type="line"/>
      <point x="355" y="565" type="line"/>
      <point x="361" y="540" type="line"/>
    </contour>
    <contour>
      <point x="100" y="0" type="line"/>
      <point x="106" y="35" type="line"/>
      <point x="398" y="35" type="line"/>
      <point x="392" y="0" type="line"/>
    </contour>
    <contour>
      <point x="203" y="700" type="line"/>
      <point x="240" y="700" type="line"/>
      <point x="117" y="0" type="line"/>
      <point x="80" y="0" type="line"/>
    </contour>
  </outline>
</glyph>
<glyph name="lslash" format="1">
  <advance width="185"/>
  <unicode hex="0142"/>
  <outline>
    <contour>
      <point x="62" y="370" type="line"/>
      <point x="55" y="395" type="line"/>
      <point x="286" y="545" type="line"/>
      <point x="294" y="520" type="line"/>
    </contour>
    <contour>
      <point x="213" y="780" type="line"/>
      <point x="248" y="780" type="line"/>
      <point x="110" y="0" type="line"/>
      <point x="75" y="0" type="line"/>
    </contour>
  </outline>
</glyph>
<glyph name="Obreve" format="1">
  <advance width="779"/>
  <unicode hex="014E"/>
  <outline>
    <contour>
      <point x="148" y="350" type="curve" smooth="yes"/>
      <point x="115" y="165"/>
      <point x="218" y="29"/>
      <point x="395" y="29" type="curve" smooth="yes"/>
      <point x="572" y="29"/>
      <point x="723" y="165"/>
      <point x="756" y="350" type="curve" smooth="yes"/>
      <point x="789" y="535"/>
      <point x="685" y="671"/>
      <point x="508" y="671" type="curve" smooth="yes"/>
      <point x="331" y="671"/>
      <point x="181" y="535"/>
    </contour>
    <contour>
      <point x="108" y="350" type="curve" smooth="yes"/>
      <point x="144" y="557"/>
      <point x="317" y="709"/>
      <point x="515" y="709" type="curve" smooth="yes"/>
      <point x="713" y="709"/>
      <point x="832" y="557"/>
      <point x="796" y="350" type="curve" smooth="yes"/>
      <point x="760" y="143"/>
      <point x="586" y="-9"/>
      <point x="388" y="-9" type="curve" smooth="yes"/>
      <point x="190" y="-9"/>
      <point x="72" y="143"/>
    </contour>
    <contour>
      <point x="392" y="909" type="curve"/>
      <point x="424" y="909" type="line"/>
      <point x="415" y="857"/>
      <point x="447" y="798"/>
      <point x="531" y="798" type="curve" smooth="yes"/>
      <point x="615" y="798"/>
      <point x="667" y="857"/>
      <point x="676" y="909" type="curve"/>
      <point x="708" y="909" type="line"/>
      <point x="696" y="840"/>
      <point x="631" y="769"/>
      <point x="526" y="769" type="curve" smooth="yes"/>
      <point x="421" y="769"/>
      <point x="380" y="840"/>
    </contour>
  </outline>
</glyph>
<glyph name="obreve" format="1">
  <advance width="552"/>
  <unicode hex="014F"/>
  <outline>
    <contour>
      <point x="82" y="230" type="curve" smooth="yes"/>
      <point x="107" y="369"/>
      <point x="226" y="470"/>
      <point x="359" y="470" type="curve" smooth="yes"/>
      <point x="492" y="470"/>
      <point x="577" y="369"/>
      <point x="552" y="230" type="curve" smooth="yes"/>
      <point x="527" y="91"/>
      <point x="407" y="-10"/>
      <point x="274" y="-10" type="curve" smooth="yes"/>
      <point x="141" y="-10"/>
      <point x="57" y="91"/>
    </contour>
    <contour>
      <point x="118" y="230" type="curve" smooth="yes"/>
      <point x="97" y="110"/>
      <point x="168" y="23"/>
      <point x="280" y="23" type="curve" smooth="yes"/>
      <point x="392" y="23"/>
      <point x="495" y="110"/>
      <point x="516" y="230" type="curve" smooth="yes"/>
      <point x="537" y="350"/>
      <point x="465" y="437"/>
      <point x="353" y="437" type="curve" smooth="yes"/>
      <point x="241" y="437"/>
      <point x="139" y="350"/>
    </contour>
    <contour>
      <point x="236" y="670" type="curve"/>
      <point x="268" y="670" type="line"/>
      <point x="259" y="618"/>
      <point x="291" y="560"/>
      <point x="375" y="560" type="curve" smooth="yes"/>
      <point x="459" y="560"/>
      <point x="511" y="618"/>
      <point x="520" y="670" type="curve"/>
      <point x="552" y="670" type="line"/>
      <point x="540" y="601"/>
      <point x="474" y="530"/>
      <point x="369" y="530" type="curve" smooth="yes"/>
      <point x="264" y="530"/>
      <point x="224" y="601"/>
    </contour>
  </outline>
</glyph>
<glyph name="OE" format="1">
  <advance width="963"/>
  <unicode hex="0152"/>
  <outline>
    <contour>
      <point x="598" y="369" type="line"/>
      <point x="604" y="404" type="line"/>
      <point x="937" y="404" type="line"/>
      <point x="931" y="369" type="line"/>
    </contour>
    <contour>
      <point x="636" y="686" type="line"/>
      <point x="673" y="686" type="line"/>
      <point x="554" y="14" type="line"/>
      <point x="517" y="14" type="line"/>
    </contour>
    <contour>
      <point x="893" y="35" type="line"/>
      <point x="887" y="0" type="line"/>
      <point x="390" y="0" type="line" smooth="yes"/>
      <point x="187" y="0"/>
      <point x="65" y="141"/>
      <point x="102" y="350" type="curve" smooth="yes"/>
      <point x="139" y="559"/>
      <point x="309" y="700"/>
      <point x="513" y="700" type="curve" smooth="yes"/>
      <point x="1009" y="700" type="line"/>
      <point x="1003" y="665" type="line"/>
      <point x="656" y="665" type="line"/>
      <point x="639" y="665" type="line"/>
      <point x="507" y="665" type="line" smooth="yes"/>
      <point x="327" y="665"/>
      <point x="172" y="535"/>
      <point x="139" y="350" type="curve" smooth="yes"/>
      <point x="106" y="165"/>
      <point x="217" y="35"/>
      <point x="396" y="35" type="curve" smooth="yes"/>
      <point x="525" y="35" type="line"/>
      <point x="549" y="35" type="line"/>
    </contour>
  </outline>
</glyph>
<glyph name="uni0156" format="1">
  <advance width="501"/>
  <unicode hex="0156"/>
  <outline>
    <contour>
      <point x="259" y="327" type="line"/>
      <point x="301" y="327" type="line"/>
      <point x="475" y="0" type="line"/>
      <point x="429" y="0" type="line"/>
    </contour>
    <contour>
      <point x="209" y="700" type="line"/>
      <point x="247" y="700" type="line"/>
      <point x="124" y="0" type="line"/>
      <point x="86" y="0" type="line"/>
    </contour>
    <contour>
      <point x="222" y="666" type="line"/>
      <point x="228" y="700" type="line"/>
      <point x="351" y="700" type="line" smooth="yes"/>
      <point x="486" y="700"/>
      <point x="576" y="630"/>
      <point x="553" y="501" type="curve" smooth="yes"/>
      <point x="530" y="372"/>
      <point x="416" y="302"/>
      <point x="281" y="302" type="curve" smooth="yes"/>
      <point x="158" y="302" type="line"/>
      <point x="164" y="335" type="line"/>
      <point x="287" y="335" type="line" smooth="yes"/>
      <point x="404" y="335"/>
      <point x="497" y="391"/>
      <point x="516" y="501" type="curve" smooth="yes"/>
      <point x="535" y="611"/>
      <point x="461" y="666"/>
      <point x="345" y="666" type="curve" smooth="yes"/>
    </contour>
    <contour>
      <point x="269" y="-60" type="line"/>
      <point x="303" y="-74" type="line"/>
      <point x="149" y="-324" type="line"/>
      <point x="126" y="-315" type="line"/>
    </contour>
  </outline>
</glyph>
<glyph name="rcaron" format="1">
  <advance width="308"/>
  <unicode hex="0159"/>
  <outline>
    <contour>
      <point x="198" y="460" type="line"/>
      <point x="117" y="0" type="line"/>
      <point x="81" y="0" type="line"/>
      <point x="162" y="460" type="line"/>
    </contour>
    <contour>
      <point x="351" y="415" type="line"/>
      <point x="334" y="428"/>
      <point x="318" y="437"/>
      <point x="296" y="437" type="curve" smooth="yes"/>
      <point x="223" y="437"/>
      <point x="181" y="365"/>
      <point x="166" y="280" type="curve"/>
      <point x="149" y="280" type="line"/>
      <point x="168" y="389"/>
      <point x="231" y="470"/>
      <point x="309" y="470" type="curve" smooth="yes"/>
      <point x="336" y="470"/>
      <point x="360" y="461"/>
      <point x="376" y="444" type="curve"/>
    </contour>
    <contour>
      <point x="290" y="568" type="line"/>
      <point x="447" y="689" type="line"/>
      <point x="468" y="670" type="line"/>
      <point x="283" y="530" type="line"/>
      <point x="148" y="670" type="line"/>
      <point x="174" y="689" type="line"/>
    </contour>
  </outline>
</glyph>
<glyph name="Zcaron" format="1">
  <advance width="538"/>
  <unicode hex="017D"/>
  <outline>
    <contour>
      <point x="155" y="664" type="line"/>
      <point x="161" y="700" type="line"/>
      <point x="645" y="700" type="line"/>
      <point x="90" y="36" type="line"/>
      <point x="514" y="36" type="line"/>
      <point x="508" y="0" type="line"/>
      <point x="18" y="0" type="line"/>
      <point x="573" y="664" type="line"/>
    </contour>
    <contour>
      <point x="422" y="807" type="line"/>
      <point x="581" y="928" type="line"/>
      <point x="600" y="909" type="line"/>
      <point x="416" y="769" type="line"/>
      <point x="280" y="909" type="line"/>
      <point x="307" y="928" type="line"/>
    </contour>
  </outline>
</glyph>
<glyph name="circumflex" format="1">
  <advance width="480"/>
  <unicode hex="02C6"/>
  <outline>
    <contour>
      <point x="362" y="692" type="line"/>
      <point x="204" y="571" type="line"/>
      <point x="184" y="590" type="line"/>
      <point x="369" y="730" type="line"/>
      <point x="504" y="590" type="line"/>
      <point x="478" y="571" type="line"/>
    </contour>
  </outline>
</glyph>
<glyph name="dotaccent" format="1">
  <advance width="262"/>
  <unicode hex="02D9"/>
  <outline>
    <contour>
      <point x="240" y="765" type="curve" smooth="yes"/>
      <point x="243" y="780"/>
      <point x="257" y="792"/>
      <point x="271" y="792" type="curve" smooth="yes"/>
      <point x="285" y="792"/>
      <point x="296" y="780"/>
      <point x="293" y="765" type="curve" smooth="yes"/>
      <point x="290" y="750"/>
      <point x="275" y="738"/>
      <point x="261" y="738" type="curve" smooth="yes"/>
      <point x="247" y="738"/>
      <point x="237" y="750"/>
    </contour>
  </outline>
</glyph>
<glyph name="ring" format="1">
  <advance width="278"/>
  <unicode hex="02DA"/>
  <outline>
    <contour>
      <point x="175" y="785" type="curve" smooth="yes"/>
      <point x="186" y="845"/>
      <point x="243" y="885"/>
      <point x="295" y="885" type="curve" smooth="yes"/>
      <point x="347" y="885"/>
      <point x="390" y="845"/>
      <point x="379" y="785" type="curve" smooth="yes"/>
      <point x="368" y="725"/>
      <point x="312" y="685"/>
      <point x="260" y="685" type="curve" smooth="yes"/>
      <point x="208" y="685"/>
      <point x="164" y="725"/>
    </contour>
    <contour>
      <point x="200" y="785" type="curve" smooth="yes"/>
      <point x="192" y="739"/>
      <point x="224" y="708"/>
      <point x="264" y="708" type="curve" smooth="yes"/>
      <point x="304" y="708"/>
      <point x="346" y="739"/>
      <point x="354" y="785" type="curve" smooth="yes"/>
      <point x="362" y="831"/>
      <point x="331" y="862"/>
      <point x="291" y="862" type="curve" smooth="yes"/>
      <point x="251" y="862"/>
      <point x="208" y="831"/>
    </contour>
  </outline>
</glyph>
<glyph name="tilde" format="1">
  <advance width="530"/>
  <unicode hex="02DC"/>
  <outline>
    <contour>
      <point x="240" y="641" type="line"/>
      <point x="250" y="677"/>
      <point x="284" y="707"/>
      <point x="329" y="707" type="curve" smooth="yes"/>
      <point x="388" y="707"/>
      <point x="390" y="660"/>
      <point x="444" y="660" type="curve" smooth="yes"/>
      <point x="469" y="660"/>
      <point x="486" y="676"/>
      <point x="509" y="708" type="curve"/>
      <point x="528" y="691" type="line"/>
      <point x="505" y="654"/>
      <point x="474" y="630"/>
      <point x="437" y="630" type="curve" smooth="yes"/>
      <point x="382" y="630"/>
      <point x="369" y="677"/>
      <point x="324" y="677" type="curve" smooth="yes"/>
      <point x="283" y="677"/>
      <point x="266" y="647"/>
      <point x="262" y="626" type="curve"/>
    </contour>
  </outline>
</glyph>
<glyph name="quotedblleft" format="1">
  <advance width="417"/>
  <unicode hex="201C"/>
  <outline>
    <contour>
      <point x="201" y="470" type="line"/>
      <point x="159" y="470" type="line"/>
      <point x="296" y="700" type="line"/>
      <point x="322" y="700" type="line"/>
    </contour>
    <contour>
      <point x="363" y="470" type="line"/>
      <point x="321" y="470" type="line"/>
      <point x="458" y="700" type="line"/>
      <point x="484" y="700" type="line"/>
    </contour>
  </outline>
</glyph>
<glyph name="dagger" format="1">
  <advance width="525"/>
  <unicode hex="2020"/>
  <outline>
    <contour>
      <point x="185" y="540" type="line"/>
      <point x="530" y="540" type="line"/>
      <point x="524" y="507" type="line"/>
      <point x="179" y="507" type="line"/>
    </contour>
    <contour>
      <point x="368" y="700" type="line"/>
      <point x="403" y="700" type="line"/>
      <point x="254" y="-150" type="line"/>
      <point x="219" y="-150" type="line"/>
    </contour>
  </outline>
</glyph>
<glyph name="ellipsis" format="1">
  <advance width="843"/>
  <unicode hex="2026"/>
  <outline>
    <contour>
      <point x="114" y="15" type="curve" smooth="yes"/>
      <point x="117" y="30"/>
      <point x="131" y="42"/>
      <point x="145" y="42" type="curve" smooth="yes"/>
      <point x="159" y="42"/>
      <point x="171" y="30"/>
      <point x="168" y="15" type="curve" smooth="yes"/>
      <point x="165" y="0"/>
      <point x="150" y="-12"/>
      <point x="136" y="-12" type="curve" smooth="yes"/>
      <point x="122" y="-12"/>
      <point x="111" y="0"/>
    </contour>
    <contour>
      <point x="398" y="15" type="curve" smooth="yes"/>
      <point x="401" y="30"/>
      <point x="415" y="42"/>
      <point x="429" y="42" type="curve" smooth="yes"/>
      <point x="443" y="42"/>
      <point x="455" y="30"/>
      <point x="452" y="15" type="curve" smooth="yes"/>
      <point x="449" y="0"/>
      <point x="434" y="-12"/>
      <point x="420" y="-12" type="curve" smooth="yes"/>
      <point x="406" y="-12"/>
      <point x="395" y="0"/>
    </contour>
    <contour>
      <point x="682" y="15" type="curve" smooth="yes"/>
      <point x="685" y="30"/>
      <point x="699" y="42"/>
      <point x="713" y="42" type="curve" smooth="yes"/>
      <point x="727" y="42"/>
      <point x="739" y="30"/>
      <point x="736" y="15" type="curve" smooth="yes"/>
      <point x="733" y="0"/>
      <point x="718" y="-12"/>
      <point x="704" y="-12" type="curve" smooth="yes"/>
      <point x="690" y="-12"/>
      <point x="679" y="0"/>
    </contour>
  </outline>
</glyph>
<glyph name="perthousand" format="1">
  <advance width="1092"/>
  <unicode hex="2030"/>
  <outline>
    <contour>
      <point x="779" y="144" type="curve" smooth="yes"/>
      <point x="794" y="230"/>
      <point x="866" y="297"/>
      <point x="958" y="297" type="curve" smooth="yes"/>
      <point x="1050" y="297"/>
      <point x="1098" y="230"/>
      <point x="1083" y="144" type="curve" smooth="yes"/>
      <point x="1068" y="58"/>
      <point x="996" y="-10"/>
      <point x="904" y="-10" type="curve" smooth="yes"/>
      <point x="812" y="-10"/>
      <point x="764" y="58"/>
    </contour>
    <contour>
      <point x="812" y="144" type="curve" smooth="yes"/>
      <point x="800" y="77"/>
      <point x="835" y="19"/>
      <point x="909" y="19" type="curve" smooth="yes"/>
      <point x="983" y="19"/>
      <point x="1038" y="77"/>
      <point x="1050" y="144" type="curve" smooth="yes"/>
      <point x="1062" y="211"/>
      <point x="1027" y="267"/>
      <point x="953" y="267" type="curve" smooth="yes"/>
      <point x="879" y="267"/>
      <point x="824" y="211"/>
    </contour>
    <contour>
      <point x="133" y="556" type="curve" smooth="yes"/>
      <point x="148" y="642"/>
      <point x="220" y="710"/>
      <point x="312" y="710" type="curve" smooth="yes"/>
      <point x="404" y="710"/>
      <point x="451" y="642"/>
      <point x="436" y="556" type="curve" smooth="yes"/>
      <point x="421" y="470"/>
      <point x="350" y="403"/>
      <point x="258" y="403" type="curve" smooth="yes"/>
      <point x="166" y="403"/>
      <point x="118" y="470"/>
    </contour>
    <contour>
      <point x="165" y="556" type="curve" smooth="yes"/>
      <point x="153" y="489"/>
      <point x="189" y="432"/>
      <point x="263" y="432" type="curve" smooth="yes"/>
      <point x="337" y="432"/>
      <point x="392" y="489"/>
      <point x="404" y="556" type="curve" smooth="yes"/>
      <point x="416" y="623"/>
      <point x="381" y="680"/>
      <point x="307" y="680" type="curve" smooth="yes"/>
      <point x="233" y="680"/>
      <point x="177" y="623"/>
    </contour>
    <contour>
      <point x="406" y="144" type="curve" smooth="yes"/>
      <point x="421" y="230"/>
      <point x="492" y="297"/>
      <point x="584" y="297" type="curve" smooth="yes"/>
      <point x="676" y="297"/>
      <point x="724" y="230"/>
      <point x="709" y="144" type="curve" smooth="yes"/>
      <point x="694" y="58"/>
      <point x="622" y="-10"/>
      <point x="530" y="-10" type="curve" smooth="yes"/>
      <point x="438" y="-10"/>
      <point x="391" y="58"/>
    </contour>
    <contour>
      <point x="438" y="144" type="curve" smooth="yes"/>
      <point x="426" y="77"/>
      <point x="461" y="19"/>
      <point x="535" y="19" type="curve" smooth="yes"/>
      <point x="609" y="19"/>
      <point x="665" y="77"/>
      <point x="677" y="144" type="curve" smooth="yes"/>
      <point x="689" y="211"/>
      <point x="653" y="267"/>
      <point x="579" y="267" type="curve" smooth="yes"/>
      <point x="505" y="267"/>
      <point x="450" y="211"/>
    </contour>
    <contour>
      <point x="692" y="700" type="line"/>
      <point x="727" y="700" type="line"/>
      <point x="150" y="0" type="line"/>
      <point x="115" y="0" type="line"/>
    </contour>
  </outline>
</glyph>
<glyph name="uni2031" format="1">
  <advance width="1466"/>
  <unicode hex="2031"/>
  <outline>
    <contour>
      <point x="1153" y="144" type="curve" smooth="yes"/>
      <point x="1168" y="230"/>
      <point x="1240" y="297"/>
      <point x="1332" y="297" type="curve" smooth="yes"/>
      <point x="1424" y="297"/>
      <point x="1471" y="230"/>
      <point x="1456" y="144" type="curve" smooth="yes"/>
      <point x="1441" y="58"/>
      <point x="1370" y="-10"/>
      <point x="1278" y="-10" type="curve" smooth="yes"/>
      <point x="1186" y="-10"/>
      <point x="1138" y="58"/>
    </contour>
    <contour>
      <point x="1185" y="144" type="curve" smooth="yes"/>
      <point x="1173" y="77"/>
      <point x="1209" y="19"/>
      <point x="1283" y="19" type="curve" smooth="yes"/>
      <point x="1357" y="19"/>
      <point x="1412" y="77"/>
      <point x="1424" y="144" type="curve" smooth="yes"/>
      <point x="1436" y="211"/>
      <point x="1401" y="267"/>
      <point x="1327" y="267" type="curve" smooth="yes"/>
      <point x="1253" y="267"/>
      <point x="1197" y="211"/>
    </contour>
    <contour>
      <point x="779" y="144" type="curve" smooth="yes"/>
      <point x="794" y="230"/>
      <point x="866" y="297"/>
      <point x="958" y="297" type="curve" smooth="yes"/>
      <point x="1050" y="297"/>
      <point x="1098" y="230"/>
      <point x="1083" y="144" type="curve" smooth="yes"/>
      <point x="1068" y="58"/>
      <point x="996" y="-10"/>
      <point x="904" y="-10" type="curve" smooth="yes"/>
      <point x="812" y="-10"/>
      <point x="764" y="58"/>
    </contour>
    <contour>
      <point x="812" y="144" type="curve" smooth="yes"/>
      <point x="800" y="77"/>
      <point x="835" y="19"/>
      <point x="909" y="19" type="curve" smooth="yes"/>
      <point x="983" y="19"/>
      <point x="1038" y="77"/>
      <point x="1050" y="144" type="curve" smooth="yes"/>
      <point x="1062" y="211"/>
      <point x="1027" y="267"/>
      <point x="953" y="267" type="curve" smooth="yes"/>
      <point x="879" y="267"/>
      <point x="824" y="211"/>
    </contour>
    <contour>
      <point x="133" y="556" type="curve" smooth="yes"/>
      <point x="148" y="642"/>
      <point x="220" y="710"/>
      <point x="312" y="710" type="curve" smooth="yes"/>
      <point x="404" y="710"/>
      <point x="451" y="642"/>
      <point x="436" y="556" type="curve" smooth="yes"/>
      <point x="421" y="470"/>
      <point x="350" y="403"/>
      <point x="258" y="403" type="curve" smooth="yes"/>
      <point x="166" y="403"/>
      <point x="118" y="470"/>
    </contour>
    <contour>
      <point x="165" y="556" type="curve" smooth="yes"/>
      <point x="153" y="489"/>
      <point x="189" y="432"/>
      <point x="263" y="432" type="curve" smooth="yes"/>
      <point x="337" y="432"/>
      <point x="392" y="489"/>
      <point x="404" y="556" type="curve" smooth="yes"/>
      <point x="416" y="623"/>
      <point x="381" y="680"/>
      <point x="307" y="680" type="curve" smooth="yes"/>
      <point x="233" y="680"/>
      <point x="177" y="623"/>
    </contour>
    <contour>
      <point x="406" y="144" type="curve" smooth="yes"/>
      <point x="421" y="230"/>
      <point x="492" y="297"/>
      <point x="584" y="297" type="curve" smooth="yes"/>
      <point x="676" y="297"/>
      <point x="724" y="230"/>
      <point x="709" y="144" type="curve" smooth="yes"/>
      <point x="694" y="58"/>
      <point x="622" y="-10"/>
      <point x="530" y="-10" type="curve" smooth="yes"/>
      <point x="438" y="-10"/>
      <point x="391" y="58"/>
    </contour>
    <contour>
      <point x="438" y="144" type="curve" smooth="yes"/>
      <point x="426" y="77"/>
      <point x="461" y="19"/>
      <point x="535" y="19" type="curve" smooth="yes"/>
      <point x="609" y="19"/>
      <point x="665" y="77"/>
      <point x="677" y="144" type="curve" smooth="yes"/>
      <point x="689" y="211"/>
      <point x="653" y="267"/>
      <point x="579" y="267" type="curve" smooth="yes"/>
      <point x="505" y="267"/>
      <point x="450" y="211"/>
    </contour>
    <contour>
      <point x="692" y="700" type="line"/>
      <point x="727" y="700" type="line"/>
      <point x="150" y="0" type="line"/>
      <point x="115" y="0" type="line"/>
    </contour>
  </outline>
</glyph>
<glyph name="uni2074" format="1">
  <advance width="376"/>
  <unicode hex="2074"/>
  <outline>
    <contour>
      <point x="97" y="364" type="line"/>
      <point x="120" y="384" type="line"/>
      <point x="327" y="384" type="line" smooth="yes"/>
      <point x="332" y="384" type="line" smooth="yes"/>
      <point x="406" y="384" type="line"/>
      <point x="402" y="364" type="line"/>
    </contour>
    <contour>
      <point x="121" y="364" type="line"/>
      <point x="97" y="364" type="line"/>
      <point x="387" y="700" type="line"/>
      <point x="396" y="700" type="line"/>
      <point x="322" y="280" type="line"/>
      <point x="298" y="280" type="line"/>
      <point x="315" y="373" type="line" smooth="yes"/>
      <point x="315" y="376" type="line" smooth="yes"/>
      <point x="363" y="646" type="line"/>
    </contour>
  </outline>
</glyph>
<glyph name="uni2076" format="1">
  <advance width="336"/>
  <unicode hex="2076"/>
  <outline>
    <contour>
      <point x="133" y="412" type="curve" smooth="yes"/>
      <point x="121" y="343"/>
      <point x="158" y="292"/>
      <point x="225" y="292" type="curve" smooth="yes"/>
      <point x="292" y="292"/>
      <point x="349" y="343"/>
      <point x="361" y="412" type="curve" smooth="yes"/>
      <point x="373" y="478"/>
      <point x="332" y="527"/>
      <point x="272" y="527" type="curve" smooth="yes"/>
      <point x="199" y="527"/>
      <point x="144" y="474"/>
    </contour>
    <contour>
      <point x="330" y="698" type="line"/>
      <point x="358" y="698" type="line"/>
      <point x="183" y="503" type="line"/>
      <point x="182" y="504" type="line"/>
      <point x="209" y="531"/>
      <point x="243" y="544"/>
      <point x="281" y="544" type="curve" smooth="yes"/>
      <point x="349" y="544"/>
      <point x="395" y="485"/>
      <point x="382" y="412" type="curve" smooth="yes"/>
      <point x="368" y="330"/>
      <point x="303" y="272"/>
      <point x="222" y="272" type="curve" smooth="yes"/>
      <point x="141" y="272"/>
      <point x="98" y="330"/>
      <point x="112" y="412" type="curve" smooth="yes"/>
      <point x="118" y="446"/>
      <point x="139" y="482"/>
      <point x="159" y="504" type="curve" smooth="yes"/>
    </contour>
  </outline>
</glyph>
<glyph name="uni2077" format="1">
  <advance width="352"/>
  <unicode hex="2077"/>
  <outline>
    <contour>
      <point x="153" y="679" type="line"/>
      <point x="156" y="700" type="line"/>
      <point x="442" y="700" type="line"/>
      <point x="154" y="280" type="line"/>
      <point x="130" y="280" type="line"/>
      <point x="406" y="679" type="line"/>
    </contour>
  </outline>
</glyph>
<glyph name="uni2078" format="1">
  <advance width="309"/>
  <unicode hex="2078"/>
  <outline>
    <contour>
      <point x="152" y="603" type="curve" smooth="yes"/>
      <point x="162" y="658"/>
      <point x="217" y="706"/>
      <point x="279" y="706" type="curve" smooth="yes"/>
      <point x="341" y="706"/>
      <point x="379" y="658"/>
      <point x="369" y="603" type="curve" smooth="yes"/>
      <point x="358" y="542"/>
      <point x="301" y="498"/>
      <point x="243" y="498" type="curve" smooth="yes"/>
      <point x="185" y="498"/>
      <point x="141" y="542"/>
    </contour>
    <contour>
      <point x="174" y="601" type="curve" smooth="yes"/>
      <point x="165" y="550"/>
      <point x="205" y="513"/>
      <point x="245" y="513" type="curve" smooth="yes"/>
      <point x="285" y="513"/>
      <point x="338" y="550"/>
      <point x="347" y="601" type="curve" smooth="yes"/>
      <point x="355" y="649"/>
      <point x="326" y="686"/>
      <point x="276" y="686" type="curve" smooth="yes"/>
      <point x="226" y="686"/>
      <point x="182" y="649"/>
    </contour>
    <contour>
      <point x="102" y="392" type="curve" smooth="yes"/>
      <point x="114" y="461"/>
      <point x="181" y="507"/>
      <point x="244" y="507" type="curve" smooth="yes"/>
      <point x="307" y="507"/>
      <point x="357" y="461"/>
      <point x="345" y="392" type="curve" smooth="yes"/>
      <point x="334" y="327"/>
      <point x="278" y="274"/>
      <point x="203" y="274" type="curve" smooth="yes"/>
      <point x="128" y="274"/>
      <point x="91" y="327"/>
    </contour>
    <contour>
      <point x="124" y="394" type="curve" smooth="yes"/>
      <point x="113" y="334"/>
      <point x="148" y="294"/>
      <point x="207" y="294" type="curve" smooth="yes"/>
      <point x="266" y="294"/>
      <point x="312" y="334"/>
      <point x="323" y="394" type="curve" smooth="yes"/>
      <point x="333" y="451"/>
      <point x="292" y="492"/>
      <point x="242" y="492" type="curve" smooth="yes"/>
      <point x="192" y="492"/>
      <point x="134" y="451"/>
    </contour>
  </outline>
</glyph>
<glyph name="uni2082" format="1">
  <advance width="336"/>
  <unicode hex="2082"/>
  <outline>
    <contour>
      <point x="28" y="2" type="line"/>
      <point x="260" y="207" type="line" smooth="yes"/>
      <point x="293" y="237"/>
      <point x="322" y="267"/>
      <point x="330" y="311" type="curve" smooth="yes"/>
      <point x="338" y="354"/>
      <point x="319" y="408"/>
      <point x="251" y="408" type="curve" smooth="yes"/>
      <point x="186" y="408"/>
      <point x="134" y="355"/>
      <point x="120" y="278" type="curve"/>
      <point x="98" y="278" type="line"/>
      <point x="114" y="367"/>
      <point x="176" y="429"/>
      <point x="255" y="429" type="curve" smooth="yes"/>
      <point x="339" y="429"/>
      <point x="361" y="362"/>
      <point x="352" y="310" type="curve" smooth="yes"/>
      <point x="344" y="263"/>
      <point x="311" y="226"/>
      <point x="274" y="194" type="curve" smooth="yes"/>
      <point x="80" y="23" type="line"/>
      <point x="313" y="23" type="line"/>
      <point x="309" y="2" type="line"/>
    </contour>
  </outline>
</glyph>
<glyph name="uni2083" format="1">
  <advance width="315"/>
  <unicode hex="2083"/>
  <outline>
    <contour>
      <point x="179" y="213" type="curve"/>
      <point x="181" y="229" type="line"/>
      <point x="235" y="229"/>
      <point x="297" y="264"/>
      <point x="307" y="318" type="curve" smooth="yes"/>
      <point x="315" y="364"/>
      <point x="292" y="406"/>
      <point x="234" y="406" type="curve" smooth="yes"/>
      <point x="179" y="406"/>
      <point x="133" y="369"/>
      <point x="124" y="316" type="curve"/>
      <point x="102" y="316" type="line"/>
      <point x="113" y="381"/>
      <point x="168" y="426"/>
      <point x="237" y="426" type="curve" smooth="yes"/>
      <point x="309" y="426"/>
      <point x="339" y="373"/>
      <point x="329" y="318" type="curve" smooth="yes"/>
      <point x="318" y="255"/>
      <point x="249" y="213"/>
    </contour>
    <contour>
      <point x="158" y="-6" type="curve" smooth="yes"/>
      <point x="77" y="-6"/>
      <point x="37" y="46"/>
      <point x="48" y="111" type="curve"/>
      <point x="71" y="111" type="line"/>
      <point x="61" y="55"/>
      <point x="95" y="15"/>
      <point x="162" y="15" type="curve" smooth="yes"/>
      <point x="226" y="15"/>
      <point x="272" y="53"/>
      <point x="282" y="109" type="curve" smooth="yes"/>
      <point x="294" y="176"/>
      <point x="232" y="208"/>
      <point x="178" y="208" type="curve"/>
      <point x="180" y="223" type="line"/>
      <point x="250" y="223"/>
      <point x="318" y="186"/>
      <point x="304" y="107" type="curve" smooth="yes"/>
      <point x="292" y="40"/>
      <point x="233" y="-6"/>
    </contour>
  </outline>
</glyph>
<glyph name="uni2085" format="1">
  <advance width="346"/>
  <unicode hex="2085"/>
  <outline>
    <contour>
      <point x="330" y="136" type="curve" smooth="yes"/>
      <point x="313" y="41"/>
      <point x="243" y="-8"/>
      <point x="166" y="-8" type="curve" smooth="yes"/>
      <point x="97" y="-8"/>
      <point x="62" y="28"/>
      <point x="47" y="80" type="curve"/>
      <point x="68" y="93" type="line"/>
      <point x="81" y="46"/>
      <point x="112" y="13"/>
      <point x="169" y="13" type="curve" smooth="yes"/>
      <point x="237" y="13"/>
      <point x="293" y="57"/>
      <point x="307" y="136" type="curve" smooth="yes"/>
      <point x="319" y="204"/>
      <point x="281" y="250"/>
      <point x="221" y="250" type="curve" smooth="yes"/>
      <point x="173" y="250"/>
      <point x="136" y="232"/>
      <point x="94" y="194" type="curve"/>
      <point x="116" y="221" type="line"/>
      <point x="143" y="249"/>
      <point x="187" y="270"/>
      <point x="233" y="270" type="curve" smooth="yes"/>
      <point x="301" y="270"/>
      <point x="344" y="215"/>
    </contour>
    <contour>
      <point x="201" y="398" type="line"/>
      <point x="129" y="226" type="line"/>
      <point x="94" y="194" type="line"/>
      <point x="189" y="418" type="line"/>
      <point x="387" y="418" type="line"/>
      <point x="383" y="398" type="line"/>
    </contour>
  </outline>
</glyph>
<glyph name="uni2087" format="1">
  <advance width="352"/>
  <unicode hex="2087"/>
  <outline>
    <contour>
      <point x="103" y="399" type="line"/>
      <point x="107" y="420" type="line"/>
      <point x="393" y="420" type="line"/>
      <point x="105" y="0" type="line"/>
      <point x="81" y="0" type="line"/>
      <point x="356" y="399" type="line"/>
    </contour>
  </outline>
</glyph>
<glyph name="uni2088" format="1">
  <advance width="309"/>
  <unicode hex="2088"/>
  <outline>
    <contour>
      <point x="103" y="323" type="curve" smooth="yes"/>
      <point x="113" y="378"/>
      <point x="168" y="426"/>
      <point x="230" y="426" type="curve" smooth="yes"/>
      <point x="292" y="426"/>
      <point x="330" y="378"/>
      <point x="320" y="323" type="curve" smooth="yes"/>
      <point x="309" y="262"/>
      <point x="251" y="218"/>
      <point x="193" y="218" type="curve" smooth="yes"/>
      <point x="135" y="218"/>
      <point x="92" y="262"/>
    </contour>
    <contour>
      <point x="125" y="321" type="curve" smooth="yes"/>
      <point x="116" y="270"/>
      <point x="156" y="233"/>
      <point x="196" y="233" type="curve" smooth="yes"/>
      <point x="236" y="233"/>
      <point x="289" y="270"/>
      <point x="298" y="321" type="curve" smooth="yes"/>
      <point x="306" y="369"/>
      <point x="277" y="406"/>
      <point x="227" y="406" type="curve" smooth="yes"/>
      <point x="177" y="406"/>
      <point x="133" y="369"/>
    </contour>
    <contour>
      <point x="53" y="112" type="curve" smooth="yes"/>
      <point x="65" y="181"/>
      <point x="132" y="227"/>
      <point x="195" y="227" type="curve" smooth="yes"/>
      <point x="258" y="227"/>
      <point x="308" y="181"/>
      <point x="296" y="112" type="curve" smooth="yes"/>
      <point x="285" y="47"/>
      <point x="229" y="-6"/>
      <point x="154" y="-6" type="curve" smooth="yes"/>
      <point x="79" y="-6"/>
      <point x="42" y="47"/>
    </contour>
    <contour>
      <point x="75" y="114" type="curve" smooth="yes"/>
      <point x="64" y="54"/>
      <point x="98" y="14"/>
      <point x="157" y="14" type="curve" smooth="yes"/>
      <point x="216" y="14"/>
      <point x="263" y="54"/>
      <point x="274" y="114" type="curve" smooth="yes"/>
      <point x="284" y="171"/>
      <point x="242" y="212"/>
      <point x="192" y="212" type="curve" smooth="yes"/>
      <point x="142" y="212"/>
      <point x="85" y="171"/>
    </contour>
  </outline>
</glyph>
<glyph name="Euro" format="1">
  <advance width="656"/>
  <unicode hex="20AC"/>
  <outline>
    <contour>
      <point x="129" y="431" type="line"/>
      <point x="133" y="455" type="line"/>
      <point x="634" y="455" type="line"/>
      <point x="630" y="431" type="line"/>
    </contour>
    <contour>
      <point x="108" y="311" type="line"/>
      <point x="112" y="335" type="line"/>
      <point x="587" y="335" type="line"/>
      <point x="583" y="311" type="line"/>
    </contour>
    <contour>
      <point x="220" y="350" type="curve" smooth="yes"/>
      <point x="186" y="160"/>
      <point x="263" y="25"/>
      <point x="412" y="25" type="curve" smooth="yes"/>
      <point x="469" y="25"/>
      <point x="524" y="43"/>
      <point x="571" y="76" type="curve"/>
      <point x="563" y="31" type="line"/>
      <point x="513" y="5"/>
      <point x="460" y="-10"/>
      <point x="406" y="-10" type="curve" smooth="yes"/>
      <point x="232" y="-10"/>
      <point x="146" y="141"/>
      <point x="183" y="350" type="curve" smooth="yes"/>
      <point x="220" y="559"/>
      <point x="359" y="710"/>
      <point x="533" y="710" type="curve" smooth="yes"/>
      <point x="587" y="710"/>
      <point x="636" y="695"/>
      <point x="676" y="669" type="curve"/>
      <point x="668" y="624" type="line"/>
      <point x="633" y="657"/>
      <point x="584" y="675"/>
      <point x="527" y="675" type="curve" smooth="yes"/>
      <point x="372" y="675"/>
      <point x="254" y="540"/>
    </contour>
  </outline>
</glyph>
<glyph name="uni2150" format="1">
  <advance width="842"/>
  <unicode hex="2150"/>
  <outline>
    <contour>
      <point x="725" y="700" type="line"/>
      <point x="756" y="700" type="line"/>
      <point x="79" y="0" type="line"/>
      <point x="48" y="0" type="line"/>
    </contour>
    <contour>
      <point x="138" y="646" type="line"/>
      <point x="142" y="670" type="line"/>
      <point x="268" y="698" type="line"/>
      <point x="193" y="274" type="line"/>
      <point x="171" y="274" type="line"/>
      <point x="241" y="671" type="line"/>
    </contour>
    <contour>
      <point x="591" y="399" type="line"/>
      <point x="595" y="420" type="line"/>
      <point x="881" y="420" type="line"/>
      <point x="593" y="0" type="line"/>
      <point x="569" y="0" type="line"/>
      <point x="844" y="399" type="line"/>
    </contour>
  </outline>
</glyph>
<glyph name="uni2151" format="1">
  <advance width="784"/>
  <unicode hex="2151"/>
  <outline>
    <contour>
      <point x="725" y="700" type="line"/>
      <point x="756" y="700" type="line"/>
      <point x="79" y="0" type="line"/>
      <point x="48" y="0" type="line"/>
    </contour>
    <contour>
      <point x="138" y="646" type="line"/>
      <point x="142" y="670" type="line"/>
      <point x="268" y="698" type="line"/>
      <point x="193" y="274" type="line"/>
      <point x="171" y="274" type="line"/>
      <point x="241" y="671" type="line"/>
    </contour>
    <contour>
      <point x="773" y="288" type="curve" smooth="yes"/>
      <point x="785" y="357"/>
      <point x="746" y="408"/>
      <point x="679" y="408" type="curve" smooth="yes"/>
      <point x="612" y="408"/>
      <point x="557" y="357"/>
      <point x="545" y="288" type="curve" smooth="yes"/>
      <point x="533" y="222"/>
      <point x="575" y="173"/>
      <point x="635" y="173" type="curve" smooth="yes"/>
      <point x="708" y="173"/>
      <point x="762" y="226"/>
    </contour>
    <contour>
      <point x="575" y="2" type="line"/>
      <point x="547" y="2" type="line"/>
      <point x="722" y="197" type="line"/>
      <point x="724" y="196" type="line"/>
      <point x="697" y="169"/>
      <point x="663" y="156"/>
      <point x="625" y="156" type="curve" smooth="yes"/>
      <point x="557" y="156"/>
      <point x="510" y="215"/>
      <point x="523" y="288" type="curve" smooth="yes"/>
      <point x="537" y="370"/>
      <point x="601" y="428"/>
      <point x="682" y="428" type="curve" smooth="yes"/>
      <point x="763" y="428"/>
      <point x="808" y="370"/>
      <point x="794" y="288" type="curve" smooth="yes"/>
      <point x="788" y="254"/>
      <point x="767" y="218"/>
      <point x="747" y="196" type="curve" smooth="yes"/>
    </contour>
  </outline>
</glyph>
<glyph name="uni2152" format="1">
  <advance width="1080"/>
  <unicode hex="2152"/>
  <outline>
    <contour>
      <point x="725" y="700" type="line"/>
      <point x="756" y="700" type="line"/>
      <point x="79" y="0" type="line"/>
      <point x="48" y="0" type="line"/>
    </contour>
    <contour>
      <point x="138" y="646" type="line"/>
      <point x="142" y="670" type="line"/>
      <point x="268" y="698" type="line"/>
      <point x="193" y="274" type="line"/>
      <point x="171" y="274" type="line"/>
      <point x="241" y="671" type="line"/>
    </contour>
    <contour>
      <point x="519" y="373" type="line"/>
      <point x="523" y="397" type="line"/>
      <point x="649" y="425" type="line"/>
      <point x="574" y="1" type="line"/>
      <point x="552" y="1" type="line"/>
      <point x="622" y="398" type="line"/>
    </contour>
    <contour>
      <point x="801" y="210" type="curve" smooth="yes"/>
      <point x="782" y="103"/>
      <point x="811" y="15"/>
      <point x="885" y="15" type="curve" smooth="yes"/>
      <point x="959" y="15"/>
      <point x="1017" y="103"/>
      <point x="1036" y="210" type="curve" smooth="yes"/>
      <point x="1055" y="317"/>
      <point x="1027" y="405"/>
      <point x="953" y="405" type="curve" smooth="yes"/>
      <point x="879" y="405"/>
      <point x="820" y="317"/>
    </contour>
    <contour>
      <point x="778" y="210" type="curve" smooth="yes"/>
      <point x="799" y="331"/>
      <point x="871" y="426"/>
      <point x="957" y="426" type="curve" smooth="yes"/>
      <point x="1043" y="426"/>
      <point x="1081" y="331"/>
      <point x="1060" y="210" type="curve" smooth="yes"/>
      <point x="1039" y="89"/>
      <point x="967" y="-6"/>
      <point x="881" y="-6" type="curve" smooth="yes"/>
      <point x="795" y="-6"/>
      <point x="757" y="89"/>
    </contour>
  </outline>
</glyph>
<glyph name="twothirds" format="1">
  <advance width="882"/>
  <unicode hex="2154"/>
  <outline>
    <contour>
      <point x="852" y="700" type="line"/>
      <point x="883" y="700" type="line"/>
      <point x="206" y="0" type="line"/>
      <point x="175" y="0" type="line"/>
    </contour>
    <contour>
      <point x="82" y="282" type="line"/>
      <point x="312" y="487" type="line" smooth="yes"/>
      <point x="345" y="517"/>
      <point x="374" y="547"/>
      <point x="382" y="591" type="curve" smooth="yes"/>
      <point x="390" y="634"/>
      <point x="372" y="688"/>
      <point x="304" y="688" type="curve" smooth="yes"/>
      <point x="239" y="688"/>
      <point x="186" y="635"/>
      <point x="172" y="558" type="curve"/>
      <point x="150" y="558" type="line"/>
      <point x="166" y="647"/>
      <point x="229" y="709"/>
      <point x="308" y="709" type="curve" smooth="yes"/>
      <point x="392" y="709"/>
      <point x="414" y="642"/>
      <point x="405" y="590" type="curve" smooth="yes"/>
      <point x="397" y="543"/>
      <point x="365" y="506"/>
      <point x="328" y="474" type="curve" smooth="yes"/>
      <point x="132" y="303" type="line"/>
      <point x="366" y="303" type="line"/>
      <point x="363" y="282" type="line"/>
    </contour>
    <contour>
      <point x="744" y="213" type="curve"/>
      <point x="746" y="229" type="line"/>
      <point x="800" y="229"/>
      <point x="862" y="264"/>
      <point x="872" y="318" type="curve" smooth="yes"/>
      <point x="880" y="364"/>
      <point x="857" y="406"/>
      <point x="799" y="406" type="curve" smooth="yes"/>
      <point x="744" y="406"/>
      <point x="698" y="369"/>
      <point x="689" y="316" type="curve"/>
      <point x="667" y="316" type="line"/>
      <point x="678" y="381"/>
      <point x="733" y="426"/>
      <point x="802" y="426" type="curve" smooth="yes"/>
      <point x="874" y="426"/>
      <point x="904" y="373"/>
      <point x="894" y="318" type="curve" smooth="yes"/>
      <point x="883" y="255"/>
      <point x="814" y="213"/>
    </contour>
    <contour>
      <point x="723" y="-6" type="curve" smooth="yes"/>
      <point x="642" y="-6"/>
      <point x="602" y="46"/>
      <point x="613" y="111" type="curve"/>
      <point x="636" y="111" type="line"/>
      <point x="626" y="55"/>
      <point x="660" y="15"/>
      <point x="727" y="15" type="curve" smooth="yes"/>
      <point x="791" y="15"/>
      <point x="837" y="53"/>
      <point x="847" y="109" type="curve" smooth="yes"/>
      <point x="859" y="176"/>
      <point x="797" y="208"/>
      <point x="743" y="208" type="curve"/>
      <point x="745" y="223" type="line"/>
      <point x="815" y="223"/>
      <point x="883" y="186"/>
      <point x="869" y="107" type="curve" smooth="yes"/>
      <point x="857" y="40"/>
      <point x="798" y="-6"/>
    </contour>
  </outline>
</glyph>
<glyph name="uni2155" format="1">
  <advance width="744"/>
  <unicode hex="2155"/>
  <outline>
    <contour>
      <point x="725" y="700" type="line"/>
      <point x="756" y="700" type="line"/>
      <point x="79" y="0" type="line"/>
      <point x="48" y="0" type="line"/>
    </contour>
    <contour>
      <point x="138" y="646" type="line"/>
      <point x="142" y="670" type="line"/>
      <point x="268" y="698" type="line"/>
      <point x="193" y="274" type="line"/>
      <point x="171" y="274" type="line"/>
      <point x="241" y="671" type="line"/>
    </contour>
    <contour>
      <point x="718" y="136" type="curve" smooth="yes"/>
      <point x="701" y="41"/>
      <point x="631" y="-8"/>
      <point x="554" y="-8" type="curve" smooth="yes"/>
      <point x="485" y="-8"/>
      <point x="450" y="28"/>
      <point x="435" y="80" type="curve"/>
      <point x="456" y="93" type="line"/>
      <point x="469" y="46"/>
      <point x="500" y="13"/>
      <point x="557" y="13" type="curve" smooth="yes"/>
      <point x="625" y="13"/>
      <point x="681" y="57"/>
      <point x="695" y="136" type="curve" smooth="yes"/>
      <point x="707" y="204"/>
      <point x="669" y="250"/>
      <point x="609" y="250" type="curve" smooth="yes"/>
      <point x="561" y="250"/>
      <point x="524" y="232"/>
      <point x="482" y="194" type="curve"/>
      <point x="504" y="221" type="line"/>
      <point x="531" y="249"/>
      <point x="575" y="270"/>
      <point x="621" y="270" type="curve" smooth="yes"/>
      <point x="689" y="270"/>
      <point x="732" y="215"/>
    </contour>
    <contour>
      <point x="589" y="398" type="line"/>
      <point x="517" y="226" type="line"/>
      <point x="482" y="194" type="line"/>
      <point x="577" y="418" type="line"/>
      <point x="775" y="418" type="line"/>
      <point x="771" y="398" type="line"/>
    </contour>
  </outline>
</glyph>
<glyph name="uni2156" format="1">
  <advance width="871"/>
  <unicode hex="2156"/>
  <outline>
    <contour>
      <point x="852" y="700" type="line"/>
      <point x="883" y="700" type="line"/>
      <point x="206" y="0" type="line"/>
      <point x="175" y="0" type="line"/>
    </contour>
    <contour>
      <point x="82" y="282" type="line"/>
      <point x="312" y="487" type="line" smooth="yes"/>
      <point x="345" y="517"/>
      <point x="374" y="547"/>
      <point x="382" y="591" type="curve" smooth="yes"/>
      <point x="390" y="634"/>
      <point x="372" y="688"/>
      <point x="304" y="688" type="curve" smooth="yes"/>
      <point x="239" y="688"/>
      <point x="186" y="635"/>
      <point x="172" y="558" type="curve"/>
      <point x="150" y="558" type="line"/>
      <point x="166" y="647"/>
      <point x="229" y="709"/>
      <point x="308" y="709" type="curve" smooth="yes"/>
      <point x="392" y="709"/>
      <point x="414" y="642"/>
      <point x="405" y="590" type="curve" smooth="yes"/>
      <point x="397" y="543"/>
      <point x="365" y="506"/>
      <point x="328" y="474" type="curve" smooth="yes"/>
      <point x="132" y="303" type="line"/>
      <point x="366" y="303" type="line"/>
      <point x="363" y="282" type="line"/>
    </contour>
    <contour>
      <point x="845" y="136" type="curve" smooth="yes"/>
      <point x="828" y="41"/>
      <point x="758" y="-8"/>
      <point x="681" y="-8" type="curve" smooth="yes"/>
      <point x="612" y="-8"/>
      <point x="577" y="28"/>
      <point x="562" y="80" type="curve"/>
      <point x="583" y="93" type="line"/>
      <point x="596" y="46"/>
      <point x="627" y="13"/>
      <point x="684" y="13" type="curve" smooth="yes"/>
      <point x="752" y="13"/>
      <point x="808" y="57"/>
      <point x="822" y="136" type="curve" smooth="yes"/>
      <point x="834" y="204"/>
      <point x="796" y="250"/>
      <point x="736" y="250" type="curve" smooth="yes"/>
      <point x="688" y="250"/>
      <point x="651" y="232"/>
      <point x="609" y="194" type="curve"/>
      <point x="631" y="221" type="line"/>
      <point x="658" y="249"/>
      <point x="702" y="270"/>
      <point x="748" y="270" type="curve" smooth="yes"/>
      <point x="816" y="270"/>
      <point x="859" y="215"/>
    </contour>
    <contour>
      <point x="716" y="398" type="line"/>
      <point x="644" y="226" type="line"/>
      <point x="609" y="194" type="line"/>
      <point x="704" y="418" type="line"/>
      <point x="902" y="418" type="line"/>
      <point x="898" y="398" type="line"/>
    </contour>
  </outline>
</glyph>
<glyph name="uni2157" format="1">
  <advance width="831"/>
  <unicode hex="2157"/>
  <outline>
    <contour>
      <point x="812" y="700" type="line"/>
      <point x="843" y="700" type="line"/>
      <point x="166" y="0" type="line"/>
      <point x="135" y="0" type="line"/>
    </contour>
    <contour>
      <point x="233" y="493" type="curve"/>
      <point x="236" y="509" type="line"/>
      <point x="290" y="509"/>
      <point x="351" y="544"/>
      <point x="361" y="598" type="curve" smooth="yes"/>
      <point x="369" y="644"/>
      <point x="346" y="686"/>
      <point x="288" y="686" type="curve" smooth="yes"/>
      <point x="233" y="686"/>
      <point x="187" y="649"/>
      <point x="178" y="596" type="curve"/>
      <point x="156" y="596" type="line"/>
      <point x="167" y="661"/>
      <point x="222" y="706"/>
      <point x="291" y="706" type="curve" smooth="yes"/>
      <point x="363" y="706"/>
      <point x="393" y="653"/>
      <point x="383" y="598" type="curve" smooth="yes"/>
      <point x="372" y="535"/>
      <point x="303" y="493"/>
    </contour>
    <contour>
      <point x="212" y="274" type="curve" smooth="yes"/>
      <point x="131" y="274"/>
      <point x="91" y="326"/>
      <point x="102" y="391" type="curve"/>
      <point x="125" y="391" type="line"/>
      <point x="115" y="335"/>
      <point x="149" y="295"/>
      <point x="216" y="295" type="curve" smooth="yes"/>
      <point x="280" y="295"/>
      <point x="327" y="333"/>
      <point x="337" y="389" type="curve" smooth="yes"/>
      <point x="349" y="456"/>
      <point x="286" y="488"/>
      <point x="232" y="488" type="curve"/>
      <point x="235" y="503" type="line"/>
      <point x="305" y="503"/>
      <point x="372" y="466"/>
      <point x="358" y="387" type="curve" smooth="yes"/>
      <point x="346" y="320"/>
      <point x="287" y="274"/>
    </contour>
    <contour>
      <point x="805" y="136" type="curve" smooth="yes"/>
      <point x="788" y="41"/>
      <point x="718" y="-8"/>
      <point x="641" y="-8" type="curve" smooth="yes"/>
      <point x="572" y="-8"/>
      <point x="537" y="28"/>
      <point x="522" y="80" type="curve"/>
      <point x="543" y="93" type="line"/>
      <point x="556" y="46"/>
      <point x="587" y="13"/>
      <point x="644" y="13" type="curve" smooth="yes"/>
      <point x="712" y="13"/>
      <point x="768" y="57"/>
      <point x="782" y="136" type="curve" smooth="yes"/>
      <point x="794" y="204"/>
      <point x="756" y="250"/>
      <point x="696" y="250" type="curve" smooth="yes"/>
      <point x="648" y="250"/>
      <point x="611" y="232"/>
      <point x="569" y="194" type="curve"/>
      <point x="591" y="221" type="line"/>
      <point x="618" y="249"/>
      <point x="662" y="270"/>
      <point x="708" y="270" type="curve" smooth="yes"/>
      <point x="776" y="270"/>
      <point x="819" y="215"/>
    </contour>
    <contour>
      <point x="676" y="398" type="line"/>
      <point x="604" y="226" type="line"/>
      <point x="569" y="194" type="line"/>
      <point x="664" y="418" type="line"/>
      <point x="862" y="418" type="line"/>
      <point x="858" y="398" type="line"/>
    </contour>
  </outline>
</glyph>
<glyph name="uni215A" format="1">
  <advance width="856"/>
  <unicode hex="215A"/>
  <outline>
    <contour>
      <point x="847" y="700" type="line"/>
      <point x="878" y="700" type="line"/>
      <point x="201" y="0" type="line"/>
      <point x="170" y="0" type="line"/>
    </contour>
    <contour>
      <point x="379" y="416" type="curve" smooth="yes"/>
      <point x="362" y="321"/>
      <point x="292" y="272"/>
      <point x="215" y="272" type="curve" smooth="yes"/>
      <point x="146" y="272"/>
      <point x="111" y="308"/>
      <point x="96" y="360" type="curve"/>
      <point x="118" y="373" type="line"/>
      <point x="131" y="326"/>
      <point x="162" y="293"/>
      <point x="219" y="293" type="curve" smooth="yes"/>
      <point x="287" y="293"/>
      <point x="342" y="337"/>
      <point x="356" y="416" type="curve" smooth="yes"/>
      <point x="368" y="484"/>
      <point x="330" y="530"/>
      <point x="270" y="530" type="curve" smooth="yes"/>
      <point x="222" y="530"/>
      <point x="186" y="512"/>
      <point x="144" y="474" type="curve"/>
      <point x="165" y="501" type="line"/>
      <point x="192" y="529"/>
      <point x="236" y="550"/>
      <point x="282" y="550" type="curve" smooth="yes"/>
      <point x="350" y="550"/>
      <point x="393" y="495"/>
    </contour>
    <contour>
      <point x="251" y="678" type="line"/>
      <point x="178" y="506" type="line"/>
      <point x="144" y="474" type="line"/>
      <point x="238" y="698" type="line"/>
      <point x="436" y="698" type="line"/>
      <point x="433" y="678" type="line"/>
    </contour>
    <contour>
      <point x="593" y="132" type="curve" smooth="yes"/>
      <point x="581" y="63"/>
      <point x="619" y="12"/>
      <point x="686" y="12" type="curve" smooth="yes"/>
      <point x="753" y="12"/>
      <point x="809" y="63"/>
      <point x="821" y="132" type="curve" smooth="yes"/>
      <point x="833" y="198"/>
      <point x="793" y="247"/>
      <point x="733" y="247" type="curve" smooth="yes"/>
      <point x="660" y="247"/>
      <point x="604" y="194"/>
    </contour>
    <contour>
      <point x="791" y="418" type="line"/>
      <point x="819" y="418" type="line"/>
      <point x="643" y="223" type="line"/>
      <point x="642" y="224" type="line"/>
      <point x="669" y="251"/>
      <point x="704" y="264"/>
      <point x="742" y="264" type="curve" smooth="yes"/>
      <point x="810" y="264"/>
      <point x="855" y="205"/>
      <point x="842" y="132" type="curve" smooth="yes"/>
      <point x="828" y="50"/>
      <point x="764" y="-8"/>
      <point x="683" y="-8" type="curve" smooth="yes"/>
      <point x="602" y="-8"/>
      <point x="558" y="50"/>
      <point x="572" y="132" type="curve" smooth="yes"/>
      <point x="578" y="166"/>
      <point x="599" y="202"/>
      <point x="619" y="224" type="curve" smooth="yes"/>
    </contour>
  </outline>
</glyph>
<glyph name="oneeighth" format="1">
  <advance width="760"/>
  <unicode hex="215B"/>
  <outline>
    <contour>
      <point x="725" y="700" type="line"/>
      <point x="756" y="700" type="line"/>
      <point x="79" y="0" type="line"/>
      <point x="48" y="0" type="line"/>
    </contour>
    <contour>
      <point x="138" y="646" type="line"/>
      <point x="142" y="670" type="line"/>
      <point x="268" y="698" type="line"/>
      <point x="193" y="274" type="line"/>
      <point x="171" y="274" type="line"/>
      <point x="241" y="671" type="line"/>
    </contour>
    <contour>
      <point x="541" y="323" type="curve" smooth="yes"/>
      <point x="551" y="378"/>
      <point x="606" y="426"/>
      <point x="668" y="426" type="curve" smooth="yes"/>
      <point x="730" y="426"/>
      <point x="768" y="378"/>
      <point x="758" y="323" type="curve" smooth="yes"/>
      <point x="747" y="262"/>
      <point x="689" y="218"/>
      <point x="631" y="218" type="curve" smooth="yes"/>
      <point x="573" y="218"/>
      <point x="530" y="262"/>
    </contour>
    <contour>
      <point x="563" y="321" type="curve" smooth="yes"/>
      <point x="554" y="270"/>
      <point x="594" y="233"/>
      <point x="634" y="233" type="curve" smooth="yes"/>
      <point x="674" y="233"/>
      <point x="727" y="270"/>
      <point x="736" y="321" type="curve" smooth="yes"/>
      <point x="744" y="369"/>
      <point x="715" y="406"/>
      <point x="665" y="406" type="curve" smooth="yes"/>
      <point x="615" y="406"/>
      <point x="571" y="369"/>
    </contour>
    <contour>
      <point x="491" y="112" type="curve" smooth="yes"/>
      <point x="503" y="181"/>
      <point x="570" y="227"/>
      <point x="633" y="227" type="curve" smooth="yes"/>
      <point x="696" y="227"/>
      <point x="746" y="181"/>
      <point x="734" y="112" type="curve" smooth="yes"/>
      <point x="723" y="47"/>
      <point x="667" y="-6"/>
      <point x="592" y="-6" type="curve" smooth="yes"/>
      <point x="517" y="-6"/>
      <point x="480" y="47"/>
    </contour>
    <contour>
      <point x="513" y="114" type="curve" smooth="yes"/>
      <point x="502" y="54"/>
      <point x="536" y="14"/>
      <point x="595" y="14" type="curve" smooth="yes"/>
      <point x="654" y="14"/>
      <point x="701" y="54"/>
      <point x="712" y="114" type="curve" smooth="yes"/>
      <point x="722" y="171"/>
      <point x="680" y="212"/>
      <point x="630" y="212" type="curve" smooth="yes"/>
      <point x="580" y="212"/>
      <point x="523" y="171"/>
    </contour>
  </outline>
</glyph>
<glyph name="fiveeighths" format="1">
  <advance width="882"/>
  <unicode hex="215D"/>
  <outline>
    <contour>
      <point x="847" y="700" type="line"/>
      <point x="878" y="700" type="line"/>
      <point x="201" y="0" type="line"/>
      <point x="170" y="0" type="line"/>
    </contour>
    <contour>
      <point x="379" y="416" type="curve" smooth="yes"/>
      <point x="362" y="321"/>
      <point x="292" y="272"/>
      <point x="215" y="272" type="curve" smooth="yes"/>
      <point x="146" y="272"/>
      <point x="111" y="308"/>
      <point x="96" y="360" type="curve"/>
      <point x="118" y="373" type="line"/>
      <point x="131" y="326"/>
      <point x="162" y="293"/>
      <point x="219" y="293" type="curve" smooth="yes"/>
      <point x="287" y="293"/>
      <point x="342" y="337"/>
      <point x="356" y="416" type="curve" smooth="yes"/>
      <point x="368" y="484"/>
      <point x="330" y="530"/>
      <point x="270" y="530" type="curve" smooth="yes"/>
      <point x="222" y="530"/>
      <point x="186" y="512"/>
      <point x="144" y="474" type="curve"/>
      <point x="165" y="501" type="line"/>
      <point x="192" y="529"/>
      <point x="236" y="550"/>
      <point x="282" y="550" type="curve" smooth="yes"/>
      <point x="350" y="550"/>
      <point x="393" y="495"/>
    </contour>
    <contour>
      <point x="251" y="678" type="line"/>
      <point x="178" y="506" type="line"/>
      <point x="144" y="474" type="line"/>
      <point x="238" y="698" type="line"/>
      <point x="436" y="698" type="line"/>
      <point x="433" y="678" type="line"/>
    </contour>
    <contour>
      <point x="663" y="323" type="curve" smooth="yes"/>
      <point x="673" y="378"/>
      <point x="728" y="426"/>
      <point x="790" y="426" type="curve" smooth="yes"/>
      <point x="852" y="426"/>
      <point x="890" y="378"/>
      <point x="880" y="323" type="curve" smooth="yes"/>
      <point x="869" y="262"/>
      <point x="811" y="218"/>
      <point x="753" y="218" type="curve" smooth="yes"/>
      <point x="695" y="218"/>
      <point x="652" y="262"/>
    </contour>
    <contour>
      <point x="685" y="321" type="curve" smooth="yes"/>
      <point x="676" y="270"/>
      <point x="716" y="233"/>
      <point x="756" y="233" type="curve" smooth="yes"/>
      <point x="796" y="233"/>
      <point x="849" y="270"/>
      <point x="858" y="321" type="curve" smooth="yes"/>
      <point x="866" y="369"/>
      <point x="837" y="406"/>
      <point x="787" y="406" type="curve" smooth="yes"/>
      <point x="737" y="406"/>
      <point x="693" y="369"/>
    </contour>
    <contour>
      <point x="613" y="112" type="curve" smooth="yes"/>
      <point x="625" y="181"/>
      <point x="692" y="227"/>
      <point x="755" y="227" type="curve" smooth="yes"/>
      <point x="818" y="227"/>
      <point x="868" y="181"/>
      <point x="856" y="112" type="curve" smooth="yes"/>
      <point x="845" y="47"/>
      <point x="789" y="-6"/>
      <point x="714" y="-6" type="curve" smooth="yes"/>
      <point x="639" y="-6"/>
      <point x="602" y="47"/>
    </contour>
    <contour>
      <point x="635" y="114" type="curve" smooth="yes"/>
      <point x="624" y="54"/>
      <point x="658" y="14"/>
      <point x="717" y="14" type="curve" smooth="yes"/>
      <point x="776" y="14"/>
      <point x="823" y="54"/>
      <point x="834" y="114" type="curve" smooth="yes"/>
      <point x="844" y="171"/>
      <point x="802" y="212"/>
      <point x="752" y="212" type="curve" smooth="yes"/>
      <point x="702" y="212"/>
      <point x="645" y="171"/>
    </contour>
  </outline>
</glyph>
<glyph name="uni2219" format="1">
  <advance width="274"/>
  <unicode hex="2219"/>
  <outline>
    <contour>
      <point x="188" y="437" type="curve" smooth="yes"/>
      <point x="191" y="452"/>
      <point x="205" y="464"/>
      <point x="219" y="464" type="curve" smooth="yes"/>
      <point x="233" y="464"/>
      <point x="244" y="452"/>
      <point x="241" y="437" type="curve" smooth="yes"/>
      <point x="238" y="422"/>
      <point x="223" y="410"/>
      <point x="209" y="410" type="curve" smooth="yes"/>
      <point x="195" y="410"/>
      <point x="185" y="422"/>
    </contour>
  </outline>
</glyph>
<glyph name="uniFF13" format="1">
  <advance width="560"/>
  <unicode hex="FF13"/>
  <outline>
    <contour>
      <point x="319" y="356" type="curve"/>
      <point x="323" y="381" type="line"/>
      <point x="413" y="381"/>
      <point x="517" y="439"/>
      <point x="533" y="529" type="curve" smooth="yes"/>
      <point x="547" y="606"/>
      <point x="506" y="676"/>
      <point x="409" y="676" type="curve" smooth="yes"/>
      <point x="316" y="676"/>
      <point x="242" y="613"/>
      <point x="227" y="526" type="curve"/>
      <point x="192" y="526" type="line"/>
      <point x="211" y="635"/>
      <point x="300" y="710"/>
      <point x="415" y="710" type="curve" smooth="yes"/>
      <point x="535" y="710"/>
      <point x="586" y="623"/>
      <point x="570" y="530" type="curve" smooth="yes"/>
      <point x="551" y="425"/>
      <point x="435" y="356"/>
    </contour>
    <contour>
      <point x="284" y="-10" type="curve" smooth="yes"/>
      <point x="149" y="-10"/>
      <point x="83" y="76"/>
      <point x="102" y="185" type="curve"/>
      <point x="139" y="185" type="line"/>
      <point x="123" y="93"/>
      <point x="178" y="25"/>
      <point x="290" y="25" type="curve" smooth="yes"/>
      <point x="396" y="25"/>
      <point x="476" y="90"/>
      <point x="492" y="182" type="curve" smooth="yes"/>
      <point x="512" y="293"/>
      <point x="407" y="347"/>
      <point x="317" y="347" type="curve"/>
      <point x="322" y="372" type="line"/>
      <point x="438" y="372"/>
      <point x="552" y="312"/>
      <point x="529" y="179" type="curve" smooth="yes"/>
      <point x="509" y="66"/>
      <point x="409" y="-10"/>
    </contour>
  </outline>
</glyph>
<glyph name="uniFF14" format="1">
  <advance width="560"/>
  <unicode hex="FF14"/>
  <outline>
    <contour>
      <point x="47" y="140" type="line"/>
      <point x="84" y="173" type="line"/>
      <point x="428" y="173" type="line" smooth="yes"/>
      <point x="436" y="173" type="line" smooth="yes"/>
      <point x="560" y="173" type="line"/>
      <point x="554" y="140" type="line"/>
    </contour>
    <contour>
      <point x="87" y="140" type="line"/>
      <point x="47" y="140" type="line"/>
      <point x="529" y="700" type="line"/>
      <point x="543" y="700" type="line"/>
      <point x="420" y="0" type="line"/>
      <point x="382" y="0" type="line"/>
      <point x="409" y="154" type="line" smooth="yes"/>
      <point x="410" y="161" type="line" smooth="yes"/>
      <point x="490" y="610" type="line"/>
    </contour>
  </outline>
</glyph>
<glyph name="uniFF17" format="1">
  <advance width="560"/>
  <unicode hex="FF17"/>
  <outline>
    <contour>
      <point x="171" y="665" type="line"/>
      <point x="177" y="700" type="line"/>
      <point x="655" y="700" type="line"/>
      <point x="174" y="0" type="line"/>
      <point x="135" y="0" type="line"/>
      <point x="592" y="665" type="line"/>
    </contour>
  </outline>
</glyph>
<glyph name="uniFF18" format="1">
  <advance width="560"/>
  <unicode hex="FF18"/>
  <outline>
    <contour>
      <point x="195" y="537" type="curve" smooth="yes"/>
      <point x="211" y="630"/>
      <point x="301" y="710"/>
      <point x="405" y="710" type="curve" smooth="yes"/>
      <point x="509" y="710"/>
      <point x="572" y="630"/>
      <point x="556" y="537" type="curve" smooth="yes"/>
      <point x="538" y="434"/>
      <point x="440" y="363"/>
      <point x="344" y="363" type="curve" smooth="yes"/>
      <point x="248" y="363"/>
      <point x="177" y="434"/>
    </contour>
    <contour>
      <point x="230" y="534" type="curve" smooth="yes"/>
      <point x="215" y="449"/>
      <point x="282" y="388"/>
      <point x="348" y="388" type="curve" smooth="yes"/>
      <point x="414" y="388"/>
      <point x="504" y="449"/>
      <point x="519" y="534" type="curve" smooth="yes"/>
      <point x="533" y="613"/>
      <point x="483" y="677"/>
      <point x="399" y="677" type="curve" smooth="yes"/>
      <point x="315" y="677"/>
      <point x="244" y="613"/>
    </contour>
    <contour>
      <point x="111" y="187" type="curve" smooth="yes"/>
      <point x="131" y="303"/>
      <point x="242" y="379"/>
      <point x="347" y="379" type="curve" smooth="yes"/>
      <point x="452" y="379"/>
      <point x="535" y="303"/>
      <point x="515" y="187" type="curve" smooth="yes"/>
      <point x="496" y="78"/>
      <point x="403" y="-10"/>
      <point x="278" y="-10" type="curve" smooth="yes"/>
      <point x="153" y="-10"/>
      <point x="92" y="78"/>
    </contour>
    <contour>
      <point x="148" y="190" type="curve" smooth="yes"/>
      <point x="131" y="91"/>
      <point x="185" y="23"/>
      <point x="284" y="23" type="curve" smooth="yes"/>
      <point x="383" y="23"/>
      <point x="464" y="91"/>
      <point x="481" y="190" type="curve" smooth="yes"/>
      <point x="498" y="285"/>
      <point x="425" y="354"/>
      <point x="342" y="354" type="curve" smooth="yes"/>
      <point x="259" y="354"/>
      <point x="165" y="285"/>
    </contour>
  </outline>
</glyph>
<glyph name="uniFF19" format="1">
  <advance width="560"/>
  <unicode hex="FF19"/>
  <outline>
    <contour>
      <point x="554" y="476" type="curve" smooth="yes"/>
      <point x="574" y="591"/>
      <point x="511" y="676"/>
      <point x="399" y="676" type="curve" smooth="yes"/>
      <point x="287" y="676"/>
      <point x="195" y="591"/>
      <point x="175" y="476" type="curve" smooth="yes"/>
      <point x="156" y="367"/>
      <point x="224" y="284"/>
      <point x="324" y="284" type="curve" smooth="yes"/>
      <point x="446" y="284"/>
      <point x="536" y="374"/>
    </contour>
    <contour>
      <point x="226" y="0" type="line"/>
      <point x="179" y="0" type="line"/>
      <point x="470" y="325" type="line"/>
      <point x="472" y="323" type="line"/>
      <point x="427" y="278"/>
      <point x="371" y="256"/>
      <point x="307" y="256" type="curve" smooth="yes"/>
      <point x="193" y="256"/>
      <point x="117" y="353"/>
      <point x="139" y="476" type="curve" smooth="yes"/>
      <point x="163" y="614"/>
      <point x="270" y="710"/>
      <point x="405" y="710" type="curve" smooth="yes"/>
      <point x="540" y="710"/>
      <point x="614" y="614"/>
      <point x="590" y="476" type="curve" smooth="yes"/>
      <point x="580" y="419"/>
      <point x="545" y="359"/>
      <point x="511" y="322" type="curve" smooth="yes"/>
    </contour>
  </outline>
</glyph>
<glyph name="adieresis.alt" format="1">
  <advance width="551"/>
  <outline>
    <contour>
      <point x="522" y="460" type="line"/>
      <point x="556" y="460" type="line"/>
      <point x="475" y="0" type="line"/>
      <point x="441" y="0" type="line"/>
    </contour>
    <contour>
      <point x="82" y="230" type="curve" smooth="yes"/>
      <point x="108" y="378"/>
      <point x="221" y="470"/>
      <point x="343" y="470" type="curve" smooth="yes"/>
      <point x="463" y="470"/>
      <point x="520" y="360"/>
      <point x="497" y="230" type="curve" smooth="yes"/>
      <point x="474" y="100"/>
      <point x="378" y="-10"/>
      <point x="258" y="-10" type="curve" smooth="yes"/>
      <point x="136" y="-10"/>
      <point x="56" y="82"/>
    </contour>
    <contour>
      <point x="118" y="230" type="curve" smooth="yes"/>
      <point x="95" y="102"/>
      <point x="164" y="23"/>
      <point x="269" y="23" type="curve" smooth="yes"/>
      <point x="364" y="23"/>
      <point x="461" y="118"/>
      <point x="481" y="230" type="curve" smooth="yes"/>
      <point x="501" y="342"/>
      <point x="437" y="437"/>
      <point x="342" y="437" type="curve" smooth="yes"/>
      <point x="237" y="437"/>
      <point x="141" y="358"/>
    </contour>
    <contour>
      <point x="451" y="589" type="curve" smooth="yes"/>
      <point x="454" y="604"/>
      <point x="468" y="616"/>
      <point x="482" y="616" type="curve" smooth="yes"/>
      <point x="496" y="616"/>
      <point x="507" y="604"/>
      <point x="504" y="589" type="curve" smooth="yes"/>
      <point x="501" y="574"/>
      <point x="486" y="562"/>
      <point x="472" y="562" type="curve" smooth="yes"/>
      <point x="458" y="562"/>
      <point x="448" y="574"/>
    </contour>
    <contour>
      <point x="251" y="589" type="curve" smooth="yes"/>
      <point x="254" y="604"/>
      <point x="268" y="616"/>
      <point x="282" y="616" type="curve" smooth="yes"/>
      <point x="296" y="616"/>
      <point x="307" y="604"/>
      <point x="304" y="589" type="curve" smooth="yes"/>
      <point x="301" y="574"/>
      <point x="286" y="562"/>
      <point x="272" y="562" type="curve" smooth="yes"/>
      <point x="258" y="562"/>
      <point x="248" y="574"/>
    </contour>
  </outline>
</glyph>
<glyph name="aogonek.alt" format="1">
  <advance width="550"/>
  <outline>
    <contour>
      <point x="522" y="460" type="line"/>
      <point x="556" y="460" type="line"/>
      <point x="475" y="0" type="line"/>
      <point x="441" y="0" type="line"/>
    </contour>
    <contour>
      <point x="82" y="230" type="curve" smooth="yes"/>
      <point x="108" y="378"/>
      <point x="221" y="470"/>
      <point x="343" y="470" type="curve" smooth="yes"/>
      <point x="463" y="470"/>
      <point x="520" y="360"/>
      <point x="497" y="230" type="curve" smooth="yes"/>
      <point x="474" y="100"/>
      <point x="378" y="-10"/>
      <point x="258" y="-10" type="curve" smooth="yes"/>
      <point x="136" y="-10"/>
      <point x="56" y="82"/>
    </contour>
    <contour>
      <point x="118" y="230" type="curve" smooth="yes"/>
      <point x="95" y="102"/>
      <point x="164" y="23"/>
      <point x="269" y="23" type="curve" smooth="yes"/>
      <point x="364" y="23"/>
      <point x="461" y="118"/>
      <point x="481" y="230" type="curve" smooth="yes"/>
      <point x="501" y="342"/>
      <point x="437" y="437"/>
      <point x="342" y="437" type="curve" smooth="yes"/>
      <point x="237" y="437"/>
      <point x="141" y="358"/>
    </contour>
    <contour>
      <point x="471" y="-157" type="curve"/>
      <point x="483" y="-180" type="line"/>
      <point x="464" y="-200"/>
      <point x="425" y="-220"/>
      <point x="382" y="-220" type="curve" smooth="yes"/>
      <point x="311" y="-220"/>
      <point x="279" y="-186"/>
      <point x="288" y="-133" type="curve"/>
      <point x="324" y="-126" type="line"/>
      <point x="317" y="-168"/>
      <point x="347" y="-188"/>
      <point x="390" y="-188" type="curve" smooth="yes"/>
      <point x="425" y="-188"/>
      <point x="454" y="-173"/>
    </contour>
    <contour>
      <point x="324" y="-126" type="curve"/>
      <point x="288" y="-133" type="line"/>
      <point x="299" y="-68"/>
      <point x="383" y="-21"/>
      <point x="459" y="15" type="curve"/>
      <point x="475" y="0" type="line"/>
      <point x="408" y="-28"/>
      <point x="333" y="-76"/>
    </contour>
  </outline>
</glyph>
<glyph name="aring.alt" format="1">
  <advance width="551"/>
  <outline>
    <contour>
      <point x="522" y="460" type="line"/>
      <point x="556" y="460" type="line"/>
      <point x="475" y="0" type="line"/>
      <point x="441" y="0" type="line"/>
    </contour>
    <contour>
      <point x="82" y="230" type="curve" smooth="yes"/>
      <point x="108" y="378"/>
      <point x="221" y="470"/>
      <point x="343" y="470" type="curve" smooth="yes"/>
      <point x="463" y="470"/>
      <point x="520" y="360"/>
      <point x="497" y="230" type="curve" smooth="yes"/>
      <point x="474" y="100"/>
      <point x="378" y="-10"/>
      <point x="258" y="-10" type="curve" smooth="yes"/>
      <point x="136" y="-10"/>
      <point x="56" y="82"/>
    </contour>
    <contour>
      <point x="118" y="230" type="curve" smooth="yes"/>
      <point x="95" y="102"/>
      <point x="164" y="23"/>
      <point x="269" y="23" type="curve" smooth="yes"/>
      <point x="364" y="23"/>
      <point x="461" y="118"/>
      <point x="481" y="230" type="curve" smooth="yes"/>
      <point x="501" y="342"/>
      <point x="437" y="437"/>
      <point x="342" y="437" type="curve" smooth="yes"/>
      <point x="237" y="437"/>
      <point x="141" y="358"/>
    </contour>
    <contour>
      <point x="276" y="630" type="curve" smooth="yes"/>
      <point x="287" y="690"/>
      <point x="344" y="730"/>
      <point x="396" y="730" type="curve" smooth="yes"/>
      <point x="448" y="730"/>
      <point x="491" y="690"/>
      <point x="480" y="630" type="curve" smooth="yes"/>
      <point x="469" y="570"/>
      <point x="412" y="530"/>
      <point x="360" y="530" type="curve" smooth="yes"/>
      <point x="308" y="530"/>
      <point x="265" y="570"/>
    </contour>
    <contour>
      <point x="301" y="630" type="curve" smooth="yes"/>
      <point x="293" y="584"/>
      <point x="325" y="553"/>
      <point x="365" y="553" type="curve" smooth="yes"/>
      <point x="405" y="553"/>
      <point x="447" y="584"/>
      <point x="455" y="630" type="curve" smooth="yes"/>
      <point x="463" y="676"/>
      <point x="432" y="707"/>
      <point x="392" y="707" type="curve" smooth="yes"/>
      <point x="352" y="707"/>
      <point x="309" y="676"/>
    </contour>
  </outline>
</glyph>
